<svg width="20" height="20" viewBox="0 0 20 20" fill="none" xmlns="http://www.w3.org/2000/svg">
<g clip-path="url(#clip0_6_14)">
<path fill-rule="evenodd" clip-rule="evenodd" d="M5 0C7.7614 0 10 2.23857 10 5V0H15C17.7614 0 20 2.23857 20 5C20 7.7614 17.7614 10 15 10C17.7614 10 20 12.2386 20 15C20 16.3712 19.4481 17.6134 18.5543 18.5167L18.5355 18.5355L18.5189 18.552C17.6154 19.4471 16.3723 20 15 20C13.637 20 12.4015 19.4546 11.4995 18.5702C11.4878 18.5588 11.4761 18.5471 11.4644 18.5355C11.4535 18.5246 11.4426 18.5136 11.4318 18.5026C10.5462 17.6005 10 16.364 10 15C10 17.7614 7.7614 20 5 20C2.23857 20 0 17.7614 0 15V10H5C2.23857 10 0 7.7614 0 5C0 2.23857 2.23857 0 5 0ZM9 5C9 7.20915 7.20915 9 5 9V1C7.20915 1 9 2.79086 9 5ZM19 15C19 12.7908 17.2092 11 15 11C12.7908 11 11 12.7908 11 15H19ZM1 11V15C1 17.2092 2.79086 19 5 19C7.20915 19 9 17.2092 9 15V11H1ZM11 9V1H15C17.2092 1 19 2.79086 19 5C19 7.20915 17.2092 9 15 9H11Z" fill="#584EE7"/>
</g>
<defs>
<clipPath id="clip0_6_14">
<rect width="20" height="20" fill="white"/>
</clipPath>
</defs>
</svg>
