<svg width="1440" height="452" viewBox="0 0 1440 452" fill="none" xmlns="http://www.w3.org/2000/svg">
<mask id="path-1-outside-1_6_3083" maskUnits="userSpaceOnUse" x="5" y="125.888" width="1440" height="165" fill="black">
<rect fill="white" x="5" y="125.888" width="1440" height="165"/>
<path d="M6.38 143.368L10.12 138.088H32.12L59.18 265.468H61.6L90.42 153.488H117.04L145.64 265.468H148.28L175.34 138.088H197.34L201.08 143.368L169.62 289.888H126.28L103.62 200.568L81.18 289.888H38.06L6.38 143.368ZM250.379 289.888C227.206 289.888 215.619 278.448 215.619 255.568C215.619 232.688 227.206 221.248 250.379 221.248H284.259V206.948C284.259 200.202 280.886 196.828 274.139 196.828H227.499V182.968L238.939 174.388H275.459C298.486 174.388 309.999 185.975 309.999 209.148V289.888H250.379ZM241.359 257.328C241.359 264.075 244.732 267.448 251.479 267.448H284.259V241.268H251.479C244.732 241.268 241.359 244.568 241.359 251.168V257.328ZM346.491 289.888V174.388H409.851C432.878 174.388 444.391 185.975 444.391 209.148V289.888H418.651V206.948C418.651 200.202 415.278 196.828 408.531 196.828H372.231V289.888H346.491ZM480.872 289.888V174.388H544.232C567.259 174.388 578.772 185.975 578.772 209.148V289.888H553.032V206.948C553.032 200.202 549.659 196.828 542.912 196.828H506.612V289.888H480.872ZM643.852 289.888C620.679 289.888 609.092 278.448 609.092 255.568C609.092 232.688 620.679 221.248 643.852 221.248H677.732V206.948C677.732 200.202 674.359 196.828 667.612 196.828H620.972V182.968L632.412 174.388H668.932C691.959 174.388 703.472 185.975 703.472 209.148V289.888H643.852ZM634.832 257.328C634.832 264.075 638.206 267.448 644.952 267.448H677.732V241.268H644.952C638.206 241.268 634.832 244.568 634.832 251.168V257.328Z"/>
<path d="M787.096 143.368L790.836 138.088H812.836L839.896 265.468H842.316L871.136 153.488H897.756L926.356 265.468H928.996L956.056 138.088H978.056L981.796 143.368L950.336 289.888H906.996L884.336 200.568L861.896 289.888H818.776L787.096 143.368ZM1003.1 255.128V209.148C1003.1 185.975 1014.69 174.388 1037.86 174.388H1068.66C1091.69 174.388 1103.2 185.975 1103.2 209.148V255.128C1103.2 278.302 1091.69 289.888 1068.66 289.888H1037.86C1014.69 289.888 1003.1 278.302 1003.1 255.128ZM1028.84 257.328C1028.84 264.075 1032.21 267.448 1038.96 267.448H1067.34C1074.09 267.448 1077.46 264.075 1077.46 257.328V206.948C1077.46 200.202 1074.09 196.828 1067.34 196.828H1038.96C1032.21 196.828 1028.84 200.202 1028.84 206.948V257.328ZM1137.93 289.888V188.688C1143.21 179.155 1153.33 174.388 1168.29 174.388H1191.39L1203.05 182.968V196.828H1174.23C1169.24 196.828 1165.72 198.075 1163.67 200.568V289.888H1137.93ZM1229.58 289.888V127.088H1255.32V223.448L1300.2 174.388H1325.5L1327.7 178.788L1287.22 222.568L1330.78 285.488L1328.58 289.888H1303.28L1270.28 241.048L1255.32 257.108V289.888H1229.58Z"/>
<path d="M1349.6 162.508V148.208L1362.58 138.088H1407.46C1431.36 138.088 1443.32 150.042 1443.32 173.948V191.548C1443.32 216.335 1431.8 228.728 1408.78 228.728H1402.62V241.928H1375.78V204.308H1406.58C1413.03 204.308 1416.26 201.082 1416.26 194.628V171.968C1416.26 165.662 1413.03 162.508 1406.58 162.508H1349.6ZM1374.68 289.888V261.288H1403.5V289.888H1374.68Z"/>
</mask>
<path d="M6.38 143.368L5.56398 142.79L5.30957 143.149L5.40259 143.58L6.38 143.368ZM10.12 138.088V137.088H9.60288L9.30398 137.51L10.12 138.088ZM32.12 138.088L33.0982 137.88L32.9299 137.088H32.12V138.088ZM59.18 265.468L58.2018 265.676L58.3701 266.468H59.18V265.468ZM61.6 265.468V266.468H62.3752L62.5684 265.717L61.6 265.468ZM90.42 153.488V152.488H89.6448L89.4516 153.239L90.42 153.488ZM117.04 153.488L118.009 153.241L117.817 152.488H117.04V153.488ZM145.64 265.468L144.671 265.716L144.863 266.468H145.64V265.468ZM148.28 265.468V266.468H149.09L149.258 265.676L148.28 265.468ZM175.34 138.088V137.088H174.53L174.362 137.88L175.34 138.088ZM197.34 138.088L198.156 137.51L197.857 137.088H197.34V138.088ZM201.08 143.368L202.058 143.578L202.15 143.149L201.896 142.79L201.08 143.368ZM169.62 289.888V290.888H170.428L170.598 290.098L169.62 289.888ZM126.28 289.888L125.311 290.134L125.502 290.888H126.28V289.888ZM103.62 200.568L104.589 200.322L102.65 200.325L103.62 200.568ZM81.18 289.888V290.888H81.9598L82.1499 290.132L81.18 289.888ZM38.06 289.888L37.0826 290.1L37.2531 290.888H38.06V289.888ZM7.19603 143.946L10.936 138.666L9.30398 137.51L5.56398 142.79L7.19603 143.946ZM10.12 139.088H32.12V137.088H10.12V139.088ZM31.1418 138.296L58.2018 265.676L60.1582 265.26L33.0982 137.88L31.1418 138.296ZM59.18 266.468H61.6V264.468H59.18V266.468ZM62.5684 265.717L91.3884 153.737L89.4516 153.239L60.6316 265.219L62.5684 265.717ZM90.42 154.488H117.04V152.488H90.42V154.488ZM116.071 153.736L144.671 265.716L146.609 265.221L118.009 153.241L116.071 153.736ZM145.64 266.468H148.28V264.468H145.64V266.468ZM149.258 265.676L176.318 138.296L174.362 137.88L147.302 265.26L149.258 265.676ZM175.34 139.088H197.34V137.088H175.34V139.088ZM196.524 138.666L200.264 143.946L201.896 142.79L198.156 137.51L196.524 138.666ZM200.102 143.158L168.642 289.678L170.598 290.098L202.058 143.578L200.102 143.158ZM169.62 288.888H126.28V290.888H169.62V288.888ZM127.249 289.642L104.589 200.322L102.651 200.814L125.311 290.134L127.249 289.642ZM102.65 200.325L80.2101 289.645L82.1499 290.132L104.59 200.812L102.65 200.325ZM81.18 288.888H38.06V290.888H81.18V288.888ZM39.0374 289.677L7.35741 143.157L5.40259 143.58L37.0826 290.1L39.0374 289.677ZM284.259 221.248V222.248H285.259V221.248H284.259ZM227.499 196.828H226.499V197.828H227.499V196.828ZM227.499 182.968L226.899 182.168L226.499 182.468V182.968H227.499ZM238.939 174.388V173.388H238.606L238.339 173.588L238.939 174.388ZM309.999 289.888V290.888H310.999V289.888H309.999ZM284.259 267.448V268.448H285.259V267.448H284.259ZM284.259 241.268H285.259V240.268H284.259V241.268ZM250.379 288.888C238.943 288.888 230.551 286.066 225.011 280.597C219.475 275.13 216.619 266.851 216.619 255.568H214.619C214.619 267.166 217.557 276.047 223.606 282.02C229.654 287.991 238.641 290.888 250.379 290.888V288.888ZM216.619 255.568C216.619 244.286 219.475 236.007 225.011 230.54C230.551 225.071 238.943 222.248 250.379 222.248V220.248C238.641 220.248 229.654 223.146 223.606 229.117C217.557 235.09 214.619 243.971 214.619 255.568H216.619ZM250.379 222.248H284.259V220.248H250.379V222.248ZM285.259 221.248V206.948H283.259V221.248H285.259ZM285.259 206.948C285.259 203.421 284.376 200.591 282.436 198.651C280.496 196.711 277.666 195.828 274.139 195.828V197.828C277.358 197.828 279.589 198.632 281.022 200.065C282.455 201.498 283.259 203.729 283.259 206.948H285.259ZM274.139 195.828H227.499V197.828H274.139V195.828ZM228.499 196.828V182.968H226.499V196.828H228.499ZM228.099 183.768L239.539 175.188L238.339 173.588L226.899 182.168L228.099 183.768ZM238.939 175.388H275.459V173.388H238.939V175.388ZM275.459 175.388C286.816 175.388 295.151 178.245 300.655 183.783C306.159 189.322 308.999 197.714 308.999 209.148H310.999C310.999 197.409 308.082 188.421 302.073 182.373C296.063 176.325 287.128 173.388 275.459 173.388V175.388ZM308.999 209.148V289.888H310.999V209.148H308.999ZM309.999 288.888H250.379V290.888H309.999V288.888ZM240.359 257.328C240.359 260.856 241.241 263.685 243.182 265.625C245.122 267.566 247.951 268.448 251.479 268.448V266.448C248.26 266.448 246.029 265.644 244.596 264.211C243.163 262.778 242.359 260.547 242.359 257.328H240.359ZM251.479 268.448H284.259V266.448H251.479V268.448ZM285.259 267.448V241.268H283.259V267.448H285.259ZM284.259 240.268H251.479V242.268H284.259V240.268ZM251.479 240.268C247.957 240.268 245.131 241.13 243.19 243.028C241.245 244.931 240.359 247.708 240.359 251.168H242.359C242.359 248.028 243.16 245.855 244.588 244.458C246.02 243.057 248.254 242.268 251.479 242.268V240.268ZM240.359 251.168V257.328H242.359V251.168H240.359ZM346.491 289.888H345.491V290.888H346.491V289.888ZM346.491 174.388V173.388H345.491V174.388H346.491ZM444.391 289.888V290.888H445.391V289.888H444.391ZM418.651 289.888H417.651V290.888H418.651V289.888ZM372.231 196.828V195.828H371.231V196.828H372.231ZM372.231 289.888V290.888H373.231V289.888H372.231ZM347.491 289.888V174.388H345.491V289.888H347.491ZM346.491 175.388H409.851V173.388H346.491V175.388ZM409.851 175.388C421.209 175.388 429.544 178.245 435.047 183.783C440.551 189.322 443.391 197.714 443.391 209.148H445.391C445.391 197.409 442.475 188.421 436.466 182.373C430.456 176.325 421.52 173.388 409.851 173.388V175.388ZM443.391 209.148V289.888H445.391V209.148H443.391ZM444.391 288.888H418.651V290.888H444.391V288.888ZM419.651 289.888V206.948H417.651V289.888H419.651ZM419.651 206.948C419.651 203.421 418.769 200.591 416.829 198.651C414.888 196.711 412.059 195.828 408.531 195.828V197.828C411.751 197.828 413.981 198.632 415.414 200.065C416.847 201.498 417.651 203.729 417.651 206.948H419.651ZM408.531 195.828H372.231V197.828H408.531V195.828ZM371.231 196.828V289.888H373.231V196.828H371.231ZM372.231 288.888H346.491V290.888H372.231V288.888ZM480.872 289.888H479.872V290.888H480.872V289.888ZM480.872 174.388V173.388H479.872V174.388H480.872ZM578.772 289.888V290.888H579.772V289.888H578.772ZM553.032 289.888H552.032V290.888H553.032V289.888ZM506.612 196.828V195.828H505.612V196.828H506.612ZM506.612 289.888V290.888H507.612V289.888H506.612ZM481.872 289.888V174.388H479.872V289.888H481.872ZM480.872 175.388H544.232V173.388H480.872V175.388ZM544.232 175.388C555.589 175.388 563.924 178.245 569.428 183.783C574.932 189.322 577.772 197.714 577.772 209.148H579.772C579.772 197.409 576.855 188.421 570.846 182.373C564.836 176.325 555.901 173.388 544.232 173.388V175.388ZM577.772 209.148V289.888H579.772V209.148H577.772ZM578.772 288.888H553.032V290.888H578.772V288.888ZM554.032 289.888V206.948H552.032V289.888H554.032ZM554.032 206.948C554.032 203.421 553.149 200.591 551.209 198.651C549.269 196.711 546.439 195.828 542.912 195.828V197.828C546.131 197.828 548.362 198.632 549.795 200.065C551.228 201.498 552.032 203.729 552.032 206.948H554.032ZM542.912 195.828H506.612V197.828H542.912V195.828ZM505.612 196.828V289.888H507.612V196.828H505.612ZM506.612 288.888H480.872V290.888H506.612V288.888ZM677.732 221.248V222.248H678.732V221.248H677.732ZM620.972 196.828H619.972V197.828H620.972V196.828ZM620.972 182.968L620.372 182.168L619.972 182.468V182.968H620.972ZM632.412 174.388V173.388H632.079L631.812 173.588L632.412 174.388ZM703.472 289.888V290.888H704.472V289.888H703.472ZM677.732 267.448V268.448H678.732V267.448H677.732ZM677.732 241.268H678.732V240.268H677.732V241.268ZM643.852 288.888C632.417 288.888 624.024 286.066 618.485 280.597C612.948 275.13 610.092 266.851 610.092 255.568H608.092C608.092 267.166 611.03 276.047 617.08 282.02C623.127 287.991 632.115 290.888 643.852 290.888V288.888ZM610.092 255.568C610.092 244.286 612.948 236.007 618.485 230.54C624.024 225.071 632.417 222.248 643.852 222.248V220.248C632.115 220.248 623.127 223.146 617.08 229.117C611.03 235.09 608.092 243.971 608.092 255.568H610.092ZM643.852 222.248H677.732V220.248H643.852V222.248ZM678.732 221.248V206.948H676.732V221.248H678.732ZM678.732 206.948C678.732 203.421 677.85 200.591 675.909 198.651C673.969 196.711 671.14 195.828 667.612 195.828V197.828C670.832 197.828 673.062 198.632 674.495 200.065C675.928 201.498 676.732 203.729 676.732 206.948H678.732ZM667.612 195.828H620.972V197.828H667.612V195.828ZM621.972 196.828V182.968H619.972V196.828H621.972ZM621.572 183.768L633.012 175.188L631.812 173.588L620.372 182.168L621.572 183.768ZM632.412 175.388H668.932V173.388H632.412V175.388ZM668.932 175.388C680.29 175.388 688.625 178.245 694.128 183.783C699.632 189.322 702.472 197.714 702.472 209.148H704.472C704.472 197.409 701.556 188.421 695.547 182.373C689.537 176.325 680.601 173.388 668.932 173.388V175.388ZM702.472 209.148V289.888H704.472V209.148H702.472ZM703.472 288.888H643.852V290.888H703.472V288.888ZM633.832 257.328C633.832 260.856 634.715 263.685 636.655 265.625C638.596 267.566 641.425 268.448 644.952 268.448V266.448C641.733 266.448 639.502 265.644 638.069 264.211C636.636 262.778 635.832 260.547 635.832 257.328H633.832ZM644.952 268.448H677.732V266.448H644.952V268.448ZM678.732 267.448V241.268H676.732V267.448H678.732ZM677.732 240.268H644.952V242.268H677.732V240.268ZM644.952 240.268C641.43 240.268 638.604 241.13 636.663 243.028C634.718 244.931 633.832 247.708 633.832 251.168H635.832C635.832 248.028 636.633 245.855 638.062 244.458C639.494 243.057 641.728 242.268 644.952 242.268V240.268ZM633.832 251.168V257.328H635.832V251.168H633.832ZM787.096 143.368L786.28 142.79L786.026 143.149L786.119 143.58L787.096 143.368ZM790.836 138.088V137.088H790.319L790.02 137.51L790.836 138.088ZM812.836 138.088L813.815 137.88L813.646 137.088H812.836V138.088ZM839.896 265.468L838.918 265.676L839.087 266.468H839.896V265.468ZM842.316 265.468V266.468H843.092L843.285 265.717L842.316 265.468ZM871.136 153.488V152.488H870.361L870.168 153.239L871.136 153.488ZM897.756 153.488L898.725 153.241L898.533 152.488H897.756V153.488ZM926.356 265.468L925.388 265.716L925.58 266.468H926.356V265.468ZM928.996 265.468V266.468H929.806L929.975 265.676L928.996 265.468ZM956.056 138.088V137.088H955.247L955.078 137.88L956.056 138.088ZM978.056 138.088L978.872 137.51L978.574 137.088H978.056V138.088ZM981.796 143.368L982.774 143.578L982.866 143.149L982.612 142.79L981.796 143.368ZM950.336 289.888V290.888H951.145L951.314 290.098L950.336 289.888ZM906.996 289.888L906.027 290.134L906.218 290.888H906.996V289.888ZM884.336 200.568L885.306 200.322L883.367 200.325L884.336 200.568ZM861.896 289.888V290.888H862.676L862.866 290.132L861.896 289.888ZM818.776 289.888L817.799 290.1L817.97 290.888H818.776V289.888ZM787.912 143.946L791.652 138.666L790.02 137.51L786.28 142.79L787.912 143.946ZM790.836 139.088H812.836V137.088H790.836V139.088ZM811.858 138.296L838.918 265.676L840.875 265.26L813.815 137.88L811.858 138.296ZM839.896 266.468H842.316V264.468H839.896V266.468ZM843.285 265.717L872.105 153.737L870.168 153.239L841.348 265.219L843.285 265.717ZM871.136 154.488H897.756V152.488H871.136V154.488ZM896.788 153.736L925.388 265.716L927.325 265.221L898.725 153.241L896.788 153.736ZM926.356 266.468H928.996V264.468H926.356V266.468ZM929.975 265.676L957.035 138.296L955.078 137.88L928.018 265.26L929.975 265.676ZM956.056 139.088H978.056V137.088H956.056V139.088ZM977.24 138.666L980.98 143.946L982.612 142.79L978.872 137.51L977.24 138.666ZM980.819 143.158L949.359 289.678L951.314 290.098L982.774 143.578L980.819 143.158ZM950.336 288.888H906.996V290.888H950.336V288.888ZM907.966 289.642L885.306 200.322L883.367 200.814L906.027 290.134L907.966 289.642ZM883.367 200.325L860.927 289.645L862.866 290.132L885.306 200.812L883.367 200.325ZM861.896 288.888H818.776V290.888H861.896V288.888ZM819.754 289.677L788.074 143.157L786.119 143.58L817.799 290.1L819.754 289.677ZM1004.1 255.128V209.148H1002.1V255.128H1004.1ZM1004.1 209.148C1004.1 197.716 1006.96 189.325 1012.5 183.785C1018.04 178.246 1026.43 175.388 1037.86 175.388V173.388C1026.12 173.388 1017.13 176.324 1011.08 182.371C1005.03 188.418 1002.1 197.407 1002.1 209.148H1004.1ZM1037.86 175.388H1068.66V173.388H1037.86V175.388ZM1068.66 175.388C1080.02 175.388 1088.35 178.245 1093.85 183.783C1099.36 189.322 1102.2 197.714 1102.2 209.148H1104.2C1104.2 197.409 1101.28 188.421 1095.27 182.373C1089.26 176.325 1080.33 173.388 1068.66 173.388V175.388ZM1102.2 209.148V255.128H1104.2V209.148H1102.2ZM1102.2 255.128C1102.2 266.562 1099.36 274.954 1093.85 280.493C1088.35 286.032 1080.02 288.888 1068.66 288.888V290.888C1080.33 290.888 1089.26 287.951 1095.27 281.903C1101.28 275.856 1104.2 266.867 1104.2 255.128H1102.2ZM1068.66 288.888H1037.86V290.888H1068.66V288.888ZM1037.86 288.888C1026.43 288.888 1018.04 286.031 1012.5 280.491C1006.96 274.951 1004.1 266.561 1004.1 255.128H1002.1C1002.1 266.869 1005.03 275.858 1011.08 281.905C1017.13 287.952 1026.12 290.888 1037.86 290.888V288.888ZM1027.84 257.328C1027.84 260.856 1028.72 263.685 1030.66 265.625C1032.6 267.566 1035.43 268.448 1038.96 268.448V266.448C1035.74 266.448 1033.51 265.644 1032.08 264.211C1030.64 262.778 1029.84 260.547 1029.84 257.328H1027.84ZM1038.96 268.448H1067.34V266.448H1038.96V268.448ZM1067.34 268.448C1070.87 268.448 1073.7 267.566 1075.64 265.625C1077.58 263.685 1078.46 260.856 1078.46 257.328H1076.46C1076.46 260.547 1075.65 262.778 1074.22 264.211C1072.79 265.644 1070.56 266.448 1067.34 266.448V268.448ZM1078.46 257.328V206.948H1076.46V257.328H1078.46ZM1078.46 206.948C1078.46 203.421 1077.58 200.591 1075.64 198.651C1073.7 196.711 1070.87 195.828 1067.34 195.828V197.828C1070.56 197.828 1072.79 198.632 1074.22 200.065C1075.65 201.498 1076.46 203.729 1076.46 206.948H1078.46ZM1067.34 195.828H1038.96V197.828H1067.34V195.828ZM1038.96 195.828C1035.43 195.828 1032.6 196.711 1030.66 198.651C1028.72 200.591 1027.84 203.421 1027.84 206.948H1029.84C1029.84 203.729 1030.64 201.498 1032.08 200.065C1033.51 198.632 1035.74 197.828 1038.96 197.828V195.828ZM1027.84 206.948V257.328H1029.84V206.948H1027.84ZM1137.93 289.888H1136.93V290.888H1137.93V289.888ZM1137.93 188.688L1137.05 188.204L1136.93 188.43V188.688H1137.93ZM1191.39 174.388L1191.98 173.583L1191.72 173.388H1191.39V174.388ZM1203.05 182.968H1204.05V182.462L1203.64 182.163L1203.05 182.968ZM1203.05 196.828V197.828H1204.05V196.828H1203.05ZM1163.67 200.568L1162.9 199.932L1162.67 200.209V200.568H1163.67ZM1163.67 289.888V290.888H1164.67V289.888H1163.67ZM1138.93 289.888V188.688H1136.93V289.888H1138.93ZM1138.8 189.173C1143.84 180.072 1153.54 175.388 1168.29 175.388V173.388C1153.12 173.388 1142.57 178.237 1137.05 188.204L1138.8 189.173ZM1168.29 175.388H1191.39V173.388H1168.29V175.388ZM1190.8 175.194L1202.46 183.774L1203.64 182.163L1191.98 173.583L1190.8 175.194ZM1202.05 182.968V196.828H1204.05V182.968H1202.05ZM1203.05 195.828H1174.23V197.828H1203.05V195.828ZM1174.23 195.828C1169.11 195.828 1165.22 197.106 1162.9 199.932L1164.44 201.204C1166.22 199.043 1169.38 197.828 1174.23 197.828V195.828ZM1162.67 200.568V289.888H1164.67V200.568H1162.67ZM1163.67 288.888H1137.93V290.888H1163.67V288.888ZM1229.58 289.888H1228.58V290.888H1229.58V289.888ZM1229.58 127.088V126.088H1228.58V127.088H1229.58ZM1255.32 127.088H1256.32V126.088H1255.32V127.088ZM1255.32 223.448H1254.32V226.023L1256.05 224.123L1255.32 223.448ZM1300.2 174.388V173.388H1299.76L1299.46 173.713L1300.2 174.388ZM1325.5 174.388L1326.39 173.941L1326.11 173.388H1325.5V174.388ZM1327.7 178.788L1328.43 179.467L1328.9 178.959L1328.59 178.341L1327.7 178.788ZM1287.22 222.568L1286.48 221.889L1285.94 222.478L1286.39 223.137L1287.22 222.568ZM1330.78 285.488L1331.67 285.935L1331.94 285.406L1331.6 284.919L1330.78 285.488ZM1328.58 289.888V290.888H1329.19L1329.47 290.335L1328.58 289.888ZM1303.28 289.888L1302.45 290.448L1302.75 290.888H1303.28V289.888ZM1270.28 241.048L1271.11 240.488L1270.4 239.447L1269.54 240.367L1270.28 241.048ZM1255.32 257.108L1254.58 256.427L1254.32 256.715V257.108H1255.32ZM1255.32 289.888V290.888H1256.32V289.888H1255.32ZM1230.58 289.888V127.088H1228.58V289.888H1230.58ZM1229.58 128.088H1255.32V126.088H1229.58V128.088ZM1254.32 127.088V223.448H1256.32V127.088H1254.32ZM1256.05 224.123L1300.93 175.063L1299.46 173.713L1254.58 222.773L1256.05 224.123ZM1300.2 175.388H1325.5V173.388H1300.2V175.388ZM1324.6 174.835L1326.8 179.235L1328.59 178.341L1326.39 173.941L1324.6 174.835ZM1326.96 178.109L1286.48 221.889L1287.95 223.247L1328.43 179.467L1326.96 178.109ZM1286.39 223.137L1329.95 286.057L1331.6 284.919L1288.04 221.999L1286.39 223.137ZM1329.88 285.041L1327.68 289.441L1329.47 290.335L1331.67 285.935L1329.88 285.041ZM1328.58 288.888H1303.28V290.888H1328.58V288.888ZM1304.11 289.328L1271.11 240.488L1269.45 241.608L1302.45 290.448L1304.11 289.328ZM1269.54 240.367L1254.58 256.427L1256.05 257.79L1271.01 241.73L1269.54 240.367ZM1254.32 257.108V289.888H1256.32V257.108H1254.32ZM1255.32 288.888H1229.58V290.888H1255.32V288.888ZM1349.6 162.508H1348.6V163.508H1349.6V162.508ZM1349.6 148.208L1348.98 147.42L1348.6 147.72V148.208H1349.6ZM1362.58 138.088V137.088H1362.23L1361.96 137.3L1362.58 138.088ZM1402.62 228.728V227.728H1401.62V228.728H1402.62ZM1402.62 241.928V242.928H1403.62V241.928H1402.62ZM1375.78 241.928H1374.78V242.928H1375.78V241.928ZM1375.78 204.308V203.308H1374.78V204.308H1375.78ZM1374.68 289.888H1373.68V290.888H1374.68V289.888ZM1374.68 261.288V260.288H1373.68V261.288H1374.68ZM1403.5 261.288H1404.5V260.288H1403.5V261.288ZM1403.5 289.888V290.888H1404.5V289.888H1403.5ZM1350.6 162.508V148.208H1348.6V162.508H1350.6ZM1350.21 148.997L1363.19 138.877L1361.96 137.3L1348.98 147.42L1350.21 148.997ZM1362.58 139.088H1407.46V137.088H1362.58V139.088ZM1407.46 139.088C1419.26 139.088 1427.92 142.037 1433.64 147.76C1439.37 153.483 1442.32 162.149 1442.32 173.948H1444.32C1444.32 161.841 1441.29 152.576 1435.06 146.346C1428.83 140.116 1419.56 137.088 1407.46 137.088V139.088ZM1442.32 173.948V191.548H1444.32V173.948H1442.32ZM1442.32 191.548C1442.32 203.805 1439.47 212.811 1433.95 218.753C1428.44 224.68 1420.12 227.728 1408.78 227.728V229.728C1420.46 229.728 1429.41 226.58 1435.41 220.114C1441.41 213.662 1444.32 204.078 1444.32 191.548H1442.32ZM1408.78 227.728H1402.62V229.728H1408.78V227.728ZM1401.62 228.728V241.928H1403.62V228.728H1401.62ZM1402.62 240.928H1375.78V242.928H1402.62V240.928ZM1376.78 241.928V204.308H1374.78V241.928H1376.78ZM1375.78 205.308H1406.58V203.308H1375.78V205.308ZM1406.58 205.308C1409.96 205.308 1412.68 204.462 1414.54 202.595C1416.41 200.728 1417.26 198.009 1417.26 194.628H1415.26C1415.26 197.701 1414.49 199.821 1413.13 201.181C1411.77 202.541 1409.65 203.308 1406.58 203.308V205.308ZM1417.26 194.628V171.968H1415.26V194.628H1417.26ZM1417.26 171.968C1417.26 168.655 1416.41 165.987 1414.54 164.158C1412.67 162.333 1409.95 161.508 1406.58 161.508V163.508C1409.66 163.508 1411.78 164.26 1413.14 165.588C1414.49 166.912 1415.26 168.975 1415.26 171.968H1417.26ZM1406.58 161.508H1349.6V163.508H1406.58V161.508ZM1375.68 289.888V261.288H1373.68V289.888H1375.68ZM1374.68 262.288H1403.5V260.288H1374.68V262.288ZM1402.5 261.288V289.888H1404.5V261.288H1402.5ZM1403.5 288.888H1374.68V290.888H1403.5V288.888Z" fill="white" mask="url(#path-1-outside-1_6_3083)"/>
<rect x="502.112" y="55.6694" width="400" height="400" rx="20" transform="rotate(-8 502.112 55.6694)" fill="#C6D9D3"/>
<rect x="514.536" y="40.3267" width="400" height="400" rx="20" transform="rotate(-4 514.536 40.3267)" fill="#484848"/>
<rect x="528" y="25.8882" width="400" height="400" rx="20" fill="#5361FA"/>
<path d="M574.12 96.4299L598.619 88.811L579.771 101.868L574.12 96.4299Z" fill="#5361FA"/>
<path d="M598.619 88.8111L572.231 93.1634L566.58 87.7207L598.619 88.8111Z" fill="#5361FA"/>
<path d="M572.231 93.1634V99.6918L574.12 96.4299L598.619 88.811L572.231 93.1634Z" fill="#455A64"/>
<path d="M572.231 99.6916L576.004 98.2439L574.12 96.4297L572.231 99.6916Z" fill="#5361FA"/>
<path d="M574.12 96.4297L576.004 98.2439L575.401 98.4713L574.12 96.4297Z" fill="#455A64"/>
<path d="M568.171 98.7083C568.093 98.7098 568.017 98.685 567.955 98.6379C567.893 98.5908 567.848 98.5242 567.828 98.4487C567.808 98.3732 567.815 98.2933 567.846 98.2217C567.877 98.1501 567.931 98.0911 568 98.0541C568.417 97.8221 568.84 97.5901 569.257 97.4091C569.299 97.3867 569.344 97.3729 569.391 97.3686C569.438 97.3643 569.485 97.3696 569.53 97.3841C569.575 97.3986 569.616 97.422 569.652 97.453C569.687 97.484 569.716 97.5218 569.736 97.5642C569.757 97.6066 569.768 97.6528 569.77 97.6998C569.772 97.7468 569.765 97.7938 569.748 97.8379C569.732 97.8819 569.706 97.9222 569.674 97.9561C569.641 97.9901 569.602 98.0171 569.559 98.0355C569.155 98.2304 568.742 98.4392 568.338 98.6665C568.287 98.6934 568.23 98.7077 568.171 98.7083Z" fill="#E0E0E0"/>
<path d="M563.889 136.181C563.817 136.182 563.748 136.161 563.689 136.121C562.934 135.589 562.22 135.002 561.55 134.367C561.508 134.339 561.472 134.303 561.445 134.26C561.418 134.217 561.401 134.169 561.394 134.119C561.388 134.068 561.393 134.017 561.408 133.969C561.423 133.921 561.449 133.877 561.483 133.839C561.517 133.802 561.559 133.773 561.606 133.753C561.653 133.734 561.703 133.725 561.753 133.727C561.804 133.729 561.854 133.742 561.899 133.765C561.943 133.788 561.983 133.821 562.014 133.861C562.66 134.474 563.35 135.038 564.079 135.55C564.139 135.593 564.184 135.654 564.207 135.724C564.23 135.794 564.23 135.87 564.207 135.94C564.185 136.01 564.14 136.071 564.08 136.115C564.021 136.158 563.948 136.181 563.875 136.181H563.889ZM560.251 132.803C560.199 132.803 560.149 132.793 560.102 132.771C560.055 132.749 560.014 132.717 559.982 132.678C559.397 131.964 558.865 131.209 558.39 130.418C558.342 130.339 558.328 130.243 558.35 130.153C558.372 130.063 558.429 129.986 558.508 129.938C558.588 129.89 558.683 129.875 558.773 129.897C558.863 129.92 558.941 129.977 558.989 130.056C559.446 130.819 559.958 131.548 560.52 132.237C560.578 132.308 560.606 132.399 560.597 132.49C560.588 132.581 560.544 132.665 560.474 132.724C560.411 132.777 560.332 132.805 560.251 132.803ZM557.638 128.581C557.571 128.581 557.505 128.562 557.448 128.526C557.391 128.49 557.346 128.438 557.318 128.376C556.939 127.536 556.614 126.673 556.344 125.792C556.324 125.706 556.338 125.616 556.381 125.54C556.425 125.464 556.497 125.407 556.581 125.381C556.665 125.355 556.756 125.362 556.835 125.4C556.914 125.439 556.976 125.506 557.007 125.588C557.264 126.44 557.574 127.275 557.935 128.089C557.955 128.13 557.966 128.176 557.968 128.221C557.97 128.267 557.962 128.313 557.946 128.356C557.93 128.4 557.906 128.439 557.875 128.473C557.843 128.507 557.806 128.534 557.764 128.553C557.724 128.57 557.682 128.58 557.638 128.581ZM556.13 123.843C556.05 123.842 555.972 123.814 555.91 123.762C555.849 123.711 555.807 123.639 555.792 123.56C555.615 122.658 555.489 121.748 555.416 120.832C555.409 120.739 555.438 120.648 555.498 120.577C555.558 120.507 555.644 120.463 555.736 120.456C555.828 120.448 555.92 120.478 555.99 120.538C556.061 120.598 556.105 120.684 556.112 120.776C556.18 121.666 556.301 122.55 556.474 123.425C556.483 123.47 556.484 123.517 556.475 123.562C556.466 123.607 556.449 123.649 556.423 123.687C556.398 123.725 556.365 123.758 556.326 123.783C556.288 123.808 556.245 123.825 556.2 123.834L556.13 123.843ZM555.69 118.888C555.644 118.888 555.598 118.878 555.556 118.861C555.514 118.843 555.476 118.817 555.444 118.784C555.412 118.751 555.386 118.712 555.37 118.669C555.353 118.626 555.345 118.581 555.346 118.535C555.357 117.617 555.419 116.699 555.532 115.788C555.532 115.739 555.543 115.691 555.564 115.646C555.584 115.602 555.614 115.562 555.651 115.53C555.687 115.498 555.731 115.474 555.777 115.459C555.824 115.445 555.873 115.44 555.922 115.446C555.97 115.452 556.017 115.468 556.059 115.494C556.101 115.519 556.137 115.553 556.165 115.593C556.193 115.633 556.213 115.678 556.222 115.726C556.231 115.774 556.23 115.824 556.219 115.872C556.111 116.759 556.052 117.651 556.042 118.544C556.042 118.59 556.032 118.635 556.014 118.677C555.996 118.719 555.97 118.757 555.937 118.789C555.904 118.821 555.866 118.846 555.823 118.863C555.781 118.88 555.735 118.888 555.69 118.888ZM556.256 113.946C556.23 113.95 556.203 113.95 556.177 113.946C556.087 113.926 556.009 113.871 555.96 113.794C555.91 113.717 555.893 113.623 555.912 113.533C556.116 112.634 556.376 111.749 556.692 110.884C556.707 110.838 556.732 110.797 556.764 110.762C556.796 110.726 556.835 110.698 556.879 110.678C556.922 110.659 556.969 110.648 557.017 110.648C557.065 110.647 557.112 110.656 557.156 110.675C557.201 110.691 557.242 110.716 557.277 110.748C557.312 110.78 557.34 110.819 557.359 110.862C557.379 110.906 557.389 110.952 557.39 111C557.391 111.047 557.382 111.095 557.365 111.139C557.06 111.976 556.809 112.831 556.613 113.7C556.59 113.775 556.542 113.841 556.477 113.885C556.412 113.93 556.334 113.951 556.256 113.946ZM557.908 109.26C557.854 109.262 557.801 109.249 557.754 109.222C557.713 109.203 557.676 109.176 557.645 109.142C557.614 109.108 557.591 109.068 557.575 109.025C557.56 108.981 557.554 108.936 557.557 108.89C557.56 108.844 557.572 108.799 557.592 108.758C557.997 107.932 558.453 107.13 558.956 106.36C559.007 106.288 559.083 106.238 559.169 106.22C559.255 106.202 559.345 106.217 559.42 106.262C559.494 106.311 559.545 106.387 559.564 106.474C559.584 106.56 559.568 106.651 559.522 106.726C559.033 107.471 558.591 108.246 558.2 109.046C558.176 109.105 558.136 109.157 558.084 109.194C558.033 109.232 557.971 109.255 557.908 109.26ZM560.576 105.084C560.498 105.084 560.423 105.058 560.362 105.009C560.326 104.981 560.296 104.945 560.273 104.905C560.251 104.865 560.237 104.821 560.232 104.775C560.226 104.729 560.23 104.683 560.243 104.639C560.256 104.595 560.278 104.553 560.306 104.517C560.886 103.801 561.506 103.118 562.162 102.471C562.228 102.406 562.316 102.369 562.408 102.369C562.501 102.369 562.589 102.406 562.654 102.471C562.719 102.536 562.756 102.625 562.756 102.717C562.756 102.809 562.719 102.898 562.654 102.963C562.022 103.594 561.424 104.258 560.863 104.954C560.827 104.993 560.783 105.024 560.733 105.043C560.683 105.063 560.629 105.07 560.576 105.065V105.084ZM564.065 101.52C564.014 101.52 563.964 101.509 563.919 101.487C563.873 101.465 563.833 101.434 563.8 101.395C563.742 101.324 563.713 101.232 563.721 101.14C563.729 101.048 563.772 100.963 563.842 100.903C564.549 100.316 565.284 99.7642 566.046 99.2511C566.121 99.2052 566.21 99.1893 566.296 99.2065C566.382 99.2237 566.459 99.2727 566.51 99.3439C566.562 99.4209 566.581 99.5153 566.564 99.6065C566.547 99.6977 566.494 99.7784 566.417 99.8311C565.674 100.33 564.957 100.868 564.269 101.441C564.211 101.488 564.139 101.515 564.065 101.52Z" fill="#E0E0E0"/>
<path d="M567.081 137.995C567.031 137.996 566.982 137.984 566.937 137.963C566.505 137.768 566.079 137.559 565.67 137.336C565.63 137.315 565.595 137.287 565.566 137.252C565.537 137.217 565.516 137.177 565.502 137.134C565.489 137.091 565.484 137.046 565.488 137.001C565.492 136.956 565.505 136.912 565.526 136.872C565.57 136.793 565.643 136.733 565.729 136.706C565.816 136.679 565.91 136.687 565.99 136.728C566.389 136.942 566.802 137.146 567.22 137.336C567.292 137.37 567.35 137.426 567.385 137.497C567.42 137.568 567.43 137.648 567.413 137.726C567.397 137.803 567.354 137.872 567.293 137.922C567.232 137.972 567.155 137.999 567.076 138L567.081 137.995Z" fill="#E0E0E0"/>
<path d="M725.792 121.156L745.419 108.591L754.064 111.366L725.792 121.156Z" fill="#5361FA"/>
<path d="M725.792 121.157L742.756 107.014L738.984 102.662L725.792 121.157Z" fill="#5361FA"/>
<path d="M742.756 107.014V110.294L725.792 121.156L742.756 107.014Z" fill="#455A64"/>
<path d="M746.584 105.645C746.5 105.645 746.418 105.614 746.356 105.557C746.288 105.495 746.246 105.409 746.24 105.317C746.234 105.226 746.264 105.135 746.324 105.065C746.928 104.391 747.464 103.659 747.925 102.88C747.971 102.8 748.048 102.741 748.138 102.718C748.227 102.694 748.323 102.707 748.403 102.754C748.483 102.801 748.541 102.878 748.564 102.967C748.588 103.057 748.575 103.152 748.528 103.232C748.042 104.049 747.479 104.818 746.848 105.529C746.815 105.566 746.774 105.596 746.729 105.616C746.683 105.636 746.634 105.646 746.584 105.645ZM749.238 101.32C749.196 101.327 749.154 101.327 749.112 101.32C749.069 101.304 749.028 101.278 748.995 101.245C748.961 101.213 748.934 101.174 748.916 101.13C748.898 101.087 748.888 101.04 748.889 100.993C748.889 100.946 748.899 100.9 748.918 100.856C749.245 100.011 749.491 99.1365 749.651 98.2441C749.667 98.1531 749.719 98.0723 749.796 98.0197C749.872 97.9671 749.966 97.9468 750.057 97.9634C750.148 97.98 750.229 98.0321 750.281 98.1083C750.334 98.1844 750.354 98.2784 750.337 98.3694C750.167 99.3045 749.907 100.221 749.563 101.107C749.536 101.171 749.491 101.226 749.433 101.264C749.375 101.302 749.307 101.322 749.238 101.32ZM750.231 96.3417C750.185 96.3411 750.14 96.3315 750.099 96.3134C750.057 96.2953 750.019 96.2691 749.988 96.2363C749.956 96.2035 749.931 96.1647 749.915 96.1223C749.899 96.0799 749.891 96.0346 749.892 95.9891C749.892 95.8685 749.892 95.7478 749.892 95.6272C749.89 94.8395 749.828 94.053 749.706 93.2747C749.693 93.1831 749.716 93.09 749.771 93.0153C749.826 92.9407 749.907 92.8905 749.999 92.8757C750.09 92.8635 750.183 92.8871 750.257 92.9416C750.331 92.9961 750.382 93.0772 750.398 93.168C750.523 93.9817 750.587 94.8038 750.588 95.6272C750.588 95.7525 750.588 95.8777 750.588 96.003C750.584 96.0949 750.545 96.1818 750.478 96.2451C750.412 96.3083 750.323 96.343 750.231 96.3417ZM749.53 91.312C749.455 91.3117 749.383 91.2871 749.323 91.2419C749.264 91.1967 749.221 91.1333 749.201 91.0614C748.934 90.1908 748.601 89.3422 748.203 88.5233C748.183 88.4823 748.171 88.4376 748.168 88.3919C748.165 88.3462 748.171 88.3004 748.186 88.2571C748.202 88.2139 748.225 88.1741 748.256 88.1401C748.287 88.1062 748.324 88.0787 748.365 88.0594C748.449 88.0195 748.544 88.0142 748.631 88.0446C748.718 88.075 748.789 88.1388 748.829 88.2217C749.244 89.0727 749.59 89.9556 749.864 90.8619C749.878 90.9055 749.882 90.9513 749.878 90.9967C749.874 91.0421 749.86 91.0862 749.839 91.1263C749.817 91.1665 749.788 91.202 749.752 91.2307C749.717 91.2593 749.676 91.2807 749.632 91.2934C749.6 91.3063 749.565 91.3126 749.53 91.312ZM747.377 86.7045C747.319 86.705 747.261 86.6903 747.21 86.6619C747.158 86.6334 747.115 86.5921 747.085 86.5421C746.587 85.7785 746.04 85.0484 745.447 84.3566C745.417 84.3219 745.394 84.2817 745.38 84.2382C745.365 84.1946 745.36 84.1487 745.363 84.103C745.367 84.0573 745.379 84.0127 745.4 83.9718C745.421 83.931 745.449 83.8946 745.484 83.8648C745.518 83.835 745.558 83.8123 745.601 83.798C745.644 83.7837 745.69 83.7781 745.735 83.7816C745.781 83.785 745.825 83.7974 745.865 83.8181C745.906 83.8387 745.942 83.8672 745.971 83.9019C746.587 84.618 747.154 85.3744 747.669 86.1662C747.712 86.2426 747.726 86.3321 747.707 86.4177C747.688 86.5032 747.638 86.5788 747.567 86.6302C747.512 86.6711 747.446 86.6952 747.377 86.6998V86.7045ZM744.129 82.8022C744.041 82.8019 743.956 82.767 743.892 82.7048C743.224 82.0794 742.523 81.4908 741.791 80.9416C741.754 80.9142 741.723 80.8798 741.7 80.8405C741.677 80.8012 741.661 80.7576 741.655 80.7124C741.648 80.6672 741.651 80.6211 741.662 80.5768C741.674 80.5325 741.694 80.4909 741.721 80.4544C741.748 80.4178 741.783 80.387 741.822 80.3637C741.861 80.3405 741.905 80.3252 741.95 80.3187C741.995 80.3122 742.041 80.3147 742.086 80.3261C742.13 80.3374 742.172 80.3574 742.208 80.3848C742.962 80.9485 743.684 81.5542 744.37 82.199C744.422 82.2469 744.458 82.3092 744.473 82.3778C744.489 82.4465 744.483 82.5182 744.457 82.5835C744.431 82.6488 744.386 82.7047 744.327 82.7437C744.268 82.7828 744.199 82.8032 744.129 82.8022ZM740.06 79.712C739.994 79.7114 739.93 79.6921 739.874 79.6563C739.559 79.4614 739.229 79.2665 738.895 79.0763C738.431 78.8165 737.967 78.5566 737.475 78.3107C737.43 78.2927 737.39 78.2655 737.356 78.2309C737.322 78.1963 737.296 78.1551 737.279 78.1098C737.262 78.0645 737.255 78.0161 737.257 77.9678C737.26 77.9195 737.273 77.8724 737.295 77.8293C737.317 77.7862 737.348 77.7482 737.385 77.7177C737.423 77.6872 737.466 77.6648 737.513 77.652C737.56 77.6393 737.608 77.6364 737.656 77.6435C737.704 77.6507 737.75 77.6677 737.791 77.6936C738.278 77.9441 738.765 78.204 739.239 78.4731C739.582 78.6633 739.916 78.8629 740.241 79.067C740.316 79.1149 740.37 79.1897 740.391 79.2759C740.413 79.3622 740.4 79.4535 740.357 79.531C740.327 79.584 740.284 79.6284 740.232 79.6601C740.18 79.6917 740.121 79.7096 740.06 79.712ZM698.462 79.4753C698.401 79.4747 698.341 79.4581 698.288 79.4272C698.235 79.3962 698.191 79.3521 698.161 79.299C698.117 79.2207 698.105 79.1282 698.129 79.0415C698.152 78.9547 698.208 78.8806 698.286 78.835C699.093 78.371 699.924 77.907 700.764 77.5173C700.846 77.4771 700.941 77.4711 701.028 77.5006C701.115 77.5302 701.187 77.5929 701.228 77.675C701.266 77.7583 701.271 77.8533 701.241 77.94C701.21 78.0266 701.147 78.098 701.065 78.139C700.239 78.5427 699.423 78.9742 698.629 79.4336C698.577 79.4589 698.52 79.4701 698.462 79.4661V79.4753ZM735.536 77.3549C735.488 77.3552 735.44 77.344 735.397 77.3224C734.561 76.9558 733.698 76.6125 732.835 76.3062C732.748 76.2748 732.677 76.21 732.637 76.1261C732.597 76.0421 732.593 75.9458 732.624 75.8585C732.656 75.7711 732.72 75.6998 732.804 75.6602C732.888 75.6206 732.985 75.616 733.072 75.6473C733.949 75.9629 734.826 76.3109 735.68 76.6867C735.754 76.7184 735.815 76.775 735.852 76.8468C735.89 76.9186 735.901 77.0011 735.884 77.0802C735.867 77.1593 735.823 77.2299 735.759 77.2801C735.696 77.3302 735.617 77.3566 735.536 77.3549ZM703.033 77.211C702.964 77.2115 702.897 77.1914 702.84 77.1534C702.783 77.1153 702.738 77.0611 702.712 76.9976C702.693 76.955 702.683 76.9091 702.682 76.8625C702.681 76.8159 702.69 76.7696 702.707 76.7263C702.724 76.683 702.75 76.6437 702.783 76.6106C702.816 76.5775 702.855 76.5513 702.898 76.5336C703.756 76.1717 704.638 75.8376 705.52 75.536C705.564 75.5176 705.612 75.5086 705.66 75.5096C705.708 75.5105 705.755 75.5213 705.798 75.5413C705.842 75.5614 705.881 75.5902 705.913 75.626C705.945 75.6618 705.969 75.7038 705.984 75.7494C706.001 75.7942 706.008 75.8418 706.006 75.8896C706.005 75.9374 705.993 75.9843 705.973 76.0275C705.952 76.0708 705.924 76.1096 705.888 76.1415C705.852 76.1734 705.811 76.1979 705.766 76.2134C704.898 76.5104 704.026 76.8398 703.186 77.1925C703.136 77.2063 703.084 77.2095 703.033 77.2017V77.211ZM730.747 75.6056C730.715 75.6101 730.682 75.6101 730.65 75.6056C729.773 75.3504 728.873 75.1416 727.977 74.9235C727.933 74.9138 727.89 74.8953 727.852 74.8691C727.815 74.843 727.783 74.8097 727.758 74.7711C727.733 74.7326 727.716 74.6895 727.708 74.6444C727.7 74.5993 727.701 74.553 727.71 74.5082C727.72 74.4634 727.739 74.421 727.765 74.3834C727.791 74.3457 727.824 74.3136 727.863 74.2888C727.901 74.264 727.944 74.2471 727.99 74.239C728.035 74.2308 728.081 74.2317 728.126 74.2414C729.054 74.4409 729.954 74.6776 730.845 74.9374C730.925 74.9609 730.994 75.0126 731.04 75.083C731.085 75.1534 731.104 75.2378 731.092 75.3207C731.08 75.4036 731.039 75.4795 730.975 75.5344C730.912 75.5893 730.831 75.6195 730.747 75.6195V75.6056ZM707.849 75.536C707.773 75.5357 707.699 75.5106 707.639 75.4645C707.579 75.4185 707.535 75.3539 707.515 75.2808C707.502 75.2372 707.498 75.1916 707.503 75.1465C707.508 75.1013 707.522 75.0577 707.544 75.018C707.566 74.9783 707.596 74.9433 707.631 74.9152C707.667 74.887 707.708 74.8662 707.752 74.8539C708.647 74.6033 709.566 74.3899 710.48 74.1857C710.526 74.171 710.575 74.1661 710.623 74.1713C710.672 74.1766 710.718 74.1919 710.76 74.2164C710.803 74.2408 710.839 74.2738 710.867 74.3131C710.896 74.3525 710.916 74.3974 710.926 74.445C710.936 74.4926 710.936 74.5417 710.926 74.5893C710.916 74.6368 710.896 74.6818 710.868 74.7212C710.839 74.7606 710.803 74.7936 710.761 74.818C710.719 74.8425 710.672 74.8579 710.624 74.8632C709.724 75.0534 708.823 75.2761 707.942 75.5221L707.849 75.536ZM725.773 74.4873H725.704C724.799 74.3435 723.876 74.2275 722.966 74.144C722.918 74.1435 722.871 74.133 722.827 74.1134C722.783 74.0937 722.744 74.0652 722.712 74.0297C722.68 73.9942 722.655 73.9525 722.64 73.907C722.625 73.8616 722.619 73.8135 722.623 73.7658C722.627 73.718 722.641 73.6716 722.664 73.6296C722.687 73.5875 722.719 73.5506 722.756 73.5212C722.794 73.4918 722.838 73.4705 722.884 73.4587C722.931 73.4469 722.979 73.4448 723.026 73.4526C723.954 73.5361 724.882 73.6521 725.81 73.8006C725.901 73.8166 725.982 73.8672 726.035 73.9417C726.089 74.0162 726.112 74.1088 726.098 74.1997C726.082 74.2748 726.041 74.3423 725.982 74.3919C725.924 74.4414 725.85 74.4701 725.773 74.4734V74.4873ZM712.832 74.4549C712.75 74.4548 712.67 74.4254 712.607 74.3718C712.544 74.3183 712.502 74.2441 712.489 74.1625C712.476 74.071 712.499 73.9778 712.553 73.9032C712.608 73.8285 712.69 73.7784 712.781 73.7635C713.709 73.6243 714.637 73.5083 715.565 73.4294C715.611 73.4255 715.657 73.4305 715.701 73.4444C715.744 73.4582 715.785 73.4805 715.82 73.51C715.855 73.5395 715.884 73.5757 715.905 73.6164C715.927 73.6571 715.939 73.7016 715.943 73.7473C715.947 73.793 715.942 73.839 715.928 73.8827C715.915 73.9265 715.892 73.9671 715.863 74.0022C715.833 74.0373 715.797 74.0662 715.756 74.0874C715.716 74.1085 715.671 74.1215 715.626 74.1254C714.698 74.2043 713.793 74.311 712.888 74.4549H712.832ZM720.697 73.9909C719.769 73.9584 718.841 73.9537 717.936 73.9909C717.891 73.9934 717.845 73.9866 717.802 73.971C717.759 73.9554 717.72 73.9313 717.686 73.9001C717.653 73.8689 717.626 73.8312 717.608 73.7894C717.589 73.7476 717.58 73.7025 717.579 73.6568C717.577 73.6109 717.585 73.5652 717.601 73.5222C717.617 73.4792 717.641 73.4399 717.673 73.4066C717.705 73.3733 717.742 73.3467 717.785 73.3283C717.827 73.3099 717.872 73.3001 717.918 73.2995C718.846 73.267 719.774 73.2717 720.702 73.2995C720.747 73.3007 720.792 73.3109 720.834 73.3295C720.876 73.3481 720.914 73.3748 720.945 73.408C720.977 73.4411 721.001 73.4802 721.018 73.5229C721.034 73.5656 721.042 73.6111 721.04 73.6568C721.034 73.7438 720.995 73.8252 720.931 73.8852C720.868 73.9452 720.784 73.9796 720.697 73.9816V73.9909Z" fill="#E0E0E0"/>
<path d="M718.948 127.941V127.198H718.767C718.492 126.695 718.073 126.285 717.565 126.02C716.529 125.493 715.382 125.219 714.22 125.219C713.057 125.219 711.911 125.493 710.874 126.02C710.366 126.285 709.948 126.695 709.673 127.198H709.492V127.917C709.492 128.627 709.956 129.342 710.884 129.885C711.921 130.408 713.067 130.681 714.229 130.681C715.391 130.681 716.537 130.408 717.575 129.885C718.493 129.36 718.953 128.646 718.948 127.941Z" fill="#37474F"/>
<path d="M714.22 129.931C716.831 129.931 718.948 128.708 718.948 127.198C718.948 125.689 716.831 124.465 714.22 124.465C711.609 124.465 709.492 125.689 709.492 127.198C709.492 128.708 711.609 129.931 714.22 129.931Z" fill="#455A64"/>
<path d="M713.004 104.444V126.878C713.014 126.985 713.052 127.087 713.114 127.174C713.175 127.261 713.259 127.33 713.357 127.375C713.623 127.51 713.918 127.58 714.217 127.58C714.516 127.58 714.811 127.51 715.078 127.375C715.176 127.331 715.261 127.262 715.324 127.175C715.387 127.088 715.425 126.985 715.435 126.878V104.444H713.004Z" fill="#37474F"/>
<path d="M719.672 87.6515C718.488 86.9694 717.412 86.9137 716.605 87.3638L701.576 96.0499L709.116 111.172L724.196 102.448V95.8318C724.196 92.7555 722.168 89.0945 719.672 87.6515Z" fill="#455A64"/>
<path d="M709.116 104.55V111.172L700.072 105.947V99.3303C700.072 96.254 702.095 94.9316 704.592 96.3747C706.192 97.3027 707.598 99.1308 708.401 101.135C708.85 102.219 709.093 103.377 709.116 104.55Z" fill="#37474F"/>
<path d="M709.116 104.55V111.172L700.072 105.947L708.401 101.135C708.85 102.219 709.093 103.377 709.116 104.55Z" fill="#263238"/>
<path d="M707.608 106.819C706.777 104.416 704.077 101.298 701.576 99.8593C699.075 98.4209 697.729 99.1958 698.56 101.599L700.068 105.952L709.116 111.176C709.116 111.176 708.443 109.223 707.608 106.819Z" fill="#455A64"/>
<path d="M713.83 104.801L713.324 104.509C713.216 104.459 713.096 104.438 712.977 104.45C712.858 104.461 712.744 104.504 712.647 104.574C712.367 104.756 712.135 105.003 711.968 105.292C711.801 105.581 711.705 105.906 711.686 106.239C711.674 106.359 711.693 106.479 711.743 106.589C711.793 106.698 711.871 106.792 711.969 106.861L712.433 107.13L712.522 106.986C712.618 106.966 712.71 106.93 712.795 106.88C713.075 106.698 713.307 106.453 713.474 106.164C713.641 105.875 713.738 105.551 713.756 105.219C713.755 105.136 713.744 105.053 713.723 104.973L713.83 104.801Z" fill="#263238"/>
<path d="M713.129 104.857C712.85 105.039 712.617 105.284 712.451 105.572C712.284 105.861 712.187 106.185 712.169 106.518C712.169 107.13 712.6 107.376 713.129 107.07C713.409 106.888 713.642 106.643 713.809 106.355C713.976 106.066 714.072 105.742 714.09 105.409C714.104 104.796 713.64 104.551 713.129 104.857Z" fill="#37474F"/>
<path d="M713.129 106.225C713.093 106.225 713.057 106.218 713.023 106.204C712.989 106.19 712.958 106.17 712.933 106.144C712.907 106.118 712.886 106.087 712.872 106.053C712.858 106.02 712.851 105.983 712.851 105.947V96.3746C712.851 96.3008 712.88 96.2299 712.933 96.1777C712.985 96.1255 713.056 96.0962 713.129 96.0962C713.203 96.0962 713.274 96.1255 713.326 96.1777C713.379 96.2299 713.408 96.3008 713.408 96.3746V105.947C713.408 106.021 713.379 106.092 713.326 106.144C713.274 106.196 713.203 106.225 713.129 106.225Z" fill="#263238"/>
<path d="M713.38 96.6251V99.1214L716.057 96.3745L713.38 96.6251Z" fill="#37474F"/>
<path d="M570.672 131.397C570.695 130.979 570.816 130.572 571.026 130.209C571.235 129.846 571.528 129.538 571.879 129.309L633.549 93.702C633.923 93.5143 634.335 93.4165 634.753 93.4165C635.171 93.4165 635.584 93.5143 635.957 93.702L637.317 94.4908C637.669 94.7186 637.961 95.0266 638.171 95.3896C638.381 95.7526 638.502 96.1601 638.523 96.5788V143.851C638.499 144.269 638.378 144.676 638.168 145.039C637.959 145.401 637.667 145.71 637.317 145.939L575.646 181.542C575.273 181.732 574.859 181.831 574.44 181.831C574.021 181.831 573.607 181.732 573.234 181.542L571.879 180.758C571.528 180.529 571.236 180.22 571.027 179.857C570.817 179.495 570.696 179.088 570.672 178.67V131.397Z" fill="#5361FA"/>
<path opacity="0.3" d="M570.672 131.397C570.695 130.979 570.816 130.572 571.026 130.209C571.235 129.846 571.528 129.538 571.879 129.309L633.549 93.702C633.923 93.5143 634.335 93.4165 634.753 93.4165C635.171 93.4165 635.584 93.5143 635.957 93.702L637.317 94.4908C637.669 94.7186 637.961 95.0266 638.171 95.3896C638.381 95.7526 638.502 96.1601 638.523 96.5788V143.851C638.499 144.269 638.378 144.676 638.168 145.039C637.959 145.401 637.667 145.71 637.317 145.939L575.646 181.542C575.273 181.732 574.859 181.831 574.44 181.831C574.021 181.831 573.607 181.732 573.234 181.542L571.879 180.758C571.528 180.529 571.236 180.22 571.027 179.857C570.817 179.495 570.696 179.088 570.672 178.67V131.397Z" fill="black"/>
<path d="M576.324 133.272L571.025 130.209C570.808 130.569 570.687 130.978 570.672 131.397V178.67C570.696 179.088 570.817 179.495 571.027 179.857C571.236 180.22 571.528 180.528 571.879 180.758L573.234 181.542C573.607 181.732 574.021 181.831 574.44 181.831C574.859 181.831 575.273 181.732 575.646 181.542L576.324 181.152V133.272Z" fill="#5361FA"/>
<path opacity="0.5" d="M576.324 133.272L571.025 130.209C570.808 130.569 570.687 130.978 570.672 131.397V178.67C570.696 179.088 570.817 179.495 571.027 179.857C571.236 180.22 571.528 180.528 571.879 180.758L573.234 181.542C573.607 181.732 574.021 181.831 574.44 181.831C574.859 181.831 575.273 181.732 575.646 181.542L576.324 181.152V133.272Z" fill="black"/>
<path d="M638.523 96.5785V143.851C638.507 144.284 638.378 144.705 638.147 145.071C637.969 145.38 637.729 145.648 637.442 145.86L637.396 145.888L637.317 145.939L575.646 181.542C575.528 181.625 575.391 181.677 575.248 181.693C575.104 181.71 574.959 181.689 574.825 181.634C574.697 181.553 574.593 181.439 574.525 181.303C574.457 181.167 574.428 181.015 574.44 180.864V133.573C574.43 133.404 574.46 133.235 574.529 133.08C574.599 132.925 574.705 132.789 574.838 132.685C574.971 132.58 575.128 132.509 575.294 132.477C575.461 132.446 575.633 132.456 575.795 132.506L601.728 138.673L605.124 139.48C605.525 139.555 605.939 139.519 606.321 139.376C606.703 139.233 607.038 138.988 607.291 138.668L611.226 133.188L637.711 96.314C638.156 95.6923 638.523 95.8083 638.523 96.5785Z" fill="#5361FA"/>
<path opacity="0.2" d="M638.523 96.5785V143.851C638.507 144.284 638.378 144.705 638.147 145.071C637.969 145.38 637.729 145.648 637.442 145.86L637.396 145.888L637.317 145.939L575.646 181.542C575.528 181.625 575.391 181.677 575.248 181.693C575.104 181.71 574.959 181.689 574.825 181.634C574.697 181.553 574.593 181.439 574.525 181.303C574.457 181.167 574.428 181.015 574.44 180.864V133.573C574.43 133.404 574.46 133.235 574.529 133.08C574.599 132.925 574.705 132.789 574.838 132.685C574.971 132.58 575.128 132.509 575.294 132.477C575.461 132.446 575.633 132.456 575.795 132.506L601.728 138.673L605.124 139.48C605.525 139.555 605.939 139.519 606.321 139.376C606.703 139.233 607.038 138.988 607.291 138.668L611.226 133.188L637.711 96.314C638.156 95.6923 638.523 95.8083 638.523 96.5785Z" fill="black"/>
<path d="M637.317 145.939L637.396 145.888L637.442 145.86C637.729 145.649 637.969 145.38 638.147 145.072C638.375 144.711 638.505 144.296 638.523 143.87L611.226 133.198L629.508 150.459L637.317 145.939Z" fill="#5361FA"/>
<path opacity="0.6" d="M637.317 145.939L637.396 145.888L637.442 145.86C637.729 145.649 637.969 145.38 638.147 145.072C638.375 144.711 638.505 144.296 638.523 143.87L611.226 133.198L629.508 150.459L637.317 145.939Z" fill="black"/>
<path d="M574.44 180.864C574.422 181.018 574.448 181.174 574.515 181.315C574.581 181.455 574.685 181.574 574.816 181.658C574.949 181.712 575.095 181.733 575.238 181.717C575.382 181.7 575.519 181.648 575.637 181.565L596.879 169.264L601.728 138.64L574.44 180.061V180.864Z" fill="#5361FA"/>
<path opacity="0.6" d="M574.44 180.864C574.422 181.018 574.448 181.174 574.515 181.315C574.581 181.455 574.685 181.574 574.816 181.658C574.949 181.712 575.095 181.733 575.238 181.717C575.382 181.7 575.519 181.648 575.637 181.565L596.879 169.264L601.728 138.64L574.44 180.061V180.864Z" fill="black"/>
<path d="M638.147 145.072C637.969 145.38 637.729 145.649 637.442 145.86L637.396 145.888L575.646 181.542C575.528 181.625 575.391 181.677 575.248 181.694C575.104 181.71 574.959 181.69 574.825 181.635L604.359 134.488C604.952 133.543 605.866 132.844 606.933 132.519C608 132.193 609.148 132.263 610.168 132.715L638.147 145.072Z" fill="#5361FA"/>
<path opacity="0.2" d="M638.147 145.072C637.969 145.38 637.729 145.649 637.442 145.86L637.396 145.888L575.646 181.542C575.528 181.625 575.391 181.677 575.248 181.694C575.104 181.71 574.959 181.69 574.825 181.635L604.359 134.488C604.952 133.543 605.866 132.844 606.933 132.519C608 132.193 609.148 132.263 610.168 132.715L638.147 145.072Z" fill="black"/>
<path d="M574.44 132.181L602.804 144.709C603.826 145.16 604.975 145.228 606.042 144.9C607.109 144.572 608.022 143.87 608.614 142.923L638.398 95.2563L574.44 132.181Z" fill="#5361FA"/>
<path opacity="0.6" d="M574.44 132.181L602.804 144.709C603.826 145.16 604.975 145.228 606.042 144.9C607.109 144.572 608.022 143.87 608.614 142.923L638.398 95.2563L574.44 132.181Z" fill="black"/>
<path d="M574.44 132.181L603.004 142.853C603.991 143.222 605.074 143.244 606.075 142.915C607.076 142.586 607.935 141.926 608.511 141.044L638.398 95.2563L574.44 132.181Z" fill="#5361FA"/>
<path opacity="0.2" d="M574.44 132.181L603.004 142.853C603.991 143.222 605.074 143.244 606.075 142.915C607.076 142.586 607.935 141.926 608.511 141.044L638.398 95.2563L574.44 132.181Z" fill="black"/>
<path d="M581.205 137.221C581.227 136.802 581.347 136.394 581.557 136.031C581.767 135.668 582.06 135.36 582.411 135.133L644.082 99.5252C644.456 99.3353 644.869 99.2363 645.288 99.2363C645.707 99.2363 646.121 99.3353 646.495 99.5252L647.854 100.309C648.204 100.539 648.496 100.847 648.704 101.21C648.913 101.573 649.034 101.979 649.056 102.397V149.67C649.033 150.088 648.912 150.494 648.704 150.857C648.495 151.219 648.204 151.528 647.854 151.758L586.179 187.36C585.806 187.548 585.393 187.646 584.975 187.646C584.557 187.646 584.145 187.548 583.771 187.36L582.411 186.576C582.061 186.347 581.769 186.038 581.56 185.676C581.35 185.313 581.229 184.906 581.205 184.488V137.221Z" fill="#455A64"/>
<path d="M581.205 137.221C581.227 136.802 581.347 136.394 581.557 136.031C581.767 135.668 582.06 135.36 582.411 135.133L644.082 99.5252C644.456 99.3353 644.869 99.2363 645.288 99.2363C645.707 99.2363 646.121 99.3353 646.495 99.5252L647.854 100.309C648.204 100.539 648.496 100.847 648.704 101.21C648.913 101.573 649.034 101.979 649.056 102.397V149.67C649.033 150.088 648.912 150.494 648.704 150.857C648.495 151.219 648.204 151.528 647.854 151.758L586.179 187.36C585.806 187.548 585.393 187.646 584.975 187.646C584.557 187.646 584.145 187.548 583.771 187.36L582.411 186.576C582.061 186.347 581.769 186.038 581.56 185.676C581.35 185.313 581.229 184.906 581.205 184.488V137.221Z" fill="#455A64"/>
<path d="M586.861 139.104L581.558 136.046C581.341 136.406 581.219 136.815 581.205 137.234V184.493C581.229 184.911 581.35 185.318 581.56 185.68C581.769 186.043 582.061 186.351 582.411 186.581L583.771 187.365C584.145 187.553 584.557 187.65 584.975 187.65C585.393 187.65 585.806 187.553 586.179 187.365L586.861 186.97V139.104Z" fill="#263238"/>
<path d="M649.061 102.397V149.67C649.045 150.102 648.915 150.523 648.685 150.89C648.507 151.199 648.267 151.467 647.98 151.679L647.933 151.707L647.854 151.758L586.184 187.36C586.066 187.444 585.929 187.496 585.785 187.512C585.642 187.528 585.496 187.508 585.363 187.453C585.232 187.369 585.128 187.25 585.061 187.11C584.995 186.97 584.969 186.814 584.987 186.66V139.392C584.976 139.223 585.007 139.054 585.076 138.899C585.146 138.744 585.251 138.608 585.385 138.503C585.518 138.399 585.675 138.327 585.841 138.296C586.008 138.265 586.18 138.275 586.342 138.325L612.275 144.491L615.671 145.299C616.072 145.374 616.486 145.338 616.868 145.195C617.25 145.052 617.585 144.807 617.838 144.487L621.768 139.007L648.253 102.133C648.68 101.52 649.061 101.627 649.061 102.397Z" fill="#37474F"/>
<path d="M647.854 151.757L647.933 151.706L647.979 151.678C648.266 151.467 648.507 151.198 648.685 150.89C648.91 150.529 649.038 150.117 649.056 149.693L621.763 139.021L640.04 156.272L647.854 151.757Z" fill="#263238"/>
<path d="M584.978 186.664C584.96 186.818 584.986 186.974 585.052 187.115C585.118 187.255 585.223 187.374 585.353 187.458C585.487 187.513 585.632 187.533 585.776 187.517C585.919 187.5 586.057 187.448 586.175 187.365L607.407 175.106L612.256 144.482L584.968 185.871L584.978 186.664Z" fill="#263238"/>
<path d="M648.68 150.89C648.502 151.199 648.262 151.467 647.975 151.679L647.928 151.707L586.184 187.36C586.066 187.444 585.929 187.496 585.785 187.512C585.642 187.528 585.496 187.508 585.363 187.453L614.892 140.311C615.484 139.365 616.397 138.664 617.464 138.337C618.531 138.01 619.68 138.078 620.701 138.529L648.68 150.89Z" fill="#37474F"/>
<path d="M584.978 138.004L613.342 150.532C614.363 150.982 615.511 151.049 616.577 150.721C617.643 150.393 618.555 149.692 619.146 148.746L648.931 101.056L584.978 138.004Z" fill="#263238"/>
<path d="M584.978 138.004L613.537 148.676C614.524 149.046 615.609 149.068 616.611 148.739C617.613 148.411 618.473 147.75 619.049 146.867L648.931 101.056L584.978 138.004Z" fill="#37474F"/>
<path d="M626.44 174.744V127.472C626.483 126.575 626.764 125.706 627.252 124.952L656.665 83.9951C657.202 83.2469 657.949 82.6752 658.812 82.353C659.675 82.0307 660.614 81.9724 661.51 82.1855L689.169 88.7604C690.06 88.9976 690.92 89.3403 691.73 89.7812L693.089 90.5654C693.439 90.7953 693.73 91.104 693.938 91.4666C694.147 91.8292 694.268 92.2356 694.291 92.6534V139.926C694.267 140.343 694.146 140.749 693.937 141.112C693.729 141.474 693.438 141.783 693.089 142.014L631.415 177.616C631.041 177.805 630.629 177.904 630.21 177.904C629.792 177.904 629.38 177.805 629.006 177.616L627.647 176.832C627.296 176.603 627.004 176.295 626.795 175.932C626.585 175.569 626.464 175.162 626.44 174.744Z" fill="#5361FA"/>
<path opacity="0.3" d="M626.44 174.744V127.472C626.483 126.575 626.764 125.706 627.252 124.952L656.665 83.9951C657.202 83.2469 657.949 82.6752 658.812 82.353C659.675 82.0307 660.614 81.9724 661.51 82.1855L689.169 88.7604C690.06 88.9976 690.92 89.3403 691.73 89.7812L693.089 90.5654C693.439 90.7953 693.73 91.104 693.938 91.4666C694.147 91.8292 694.268 92.2356 694.291 92.6534V139.926C694.267 140.343 694.146 140.749 693.937 141.112C693.729 141.474 693.438 141.783 693.089 142.014L631.415 177.616C631.041 177.805 630.629 177.904 630.21 177.904C629.792 177.904 629.38 177.805 629.006 177.616L627.647 176.832C627.296 176.603 627.004 176.295 626.795 175.932C626.585 175.569 626.464 175.162 626.44 174.744Z" fill="white"/>
<path d="M632.092 104.625V164.945C632.092 165.71 632.635 166.026 633.298 165.641L691.201 132.233C691.552 132.004 691.845 131.696 692.055 131.333C692.264 130.97 692.385 130.563 692.407 130.145V69.8246C692.407 69.0544 691.869 68.7435 691.201 69.1286L633.298 102.537C632.947 102.765 632.655 103.073 632.445 103.436C632.236 103.799 632.115 104.206 632.092 104.625Z" fill="#FAFAFA"/>
<path d="M632.76 166.044C632.611 166.045 632.463 166.007 632.333 165.933C632.175 165.827 632.047 165.68 631.966 165.507C631.884 165.335 631.851 165.144 631.869 164.954V104.634C631.891 104.174 632.023 103.726 632.253 103.327C632.483 102.929 632.805 102.591 633.192 102.342L691.094 68.9336C691.245 68.8104 691.43 68.7362 691.625 68.7208C691.819 68.7053 692.013 68.7494 692.182 68.8471C692.351 68.9448 692.486 69.0915 692.569 69.2677C692.652 69.4439 692.68 69.6414 692.649 69.8337V130.154C692.627 130.613 692.496 131.06 692.266 131.458C692.036 131.856 691.713 132.193 691.326 132.441L633.424 165.849C633.224 165.972 632.995 166.039 632.76 166.044ZM691.739 69.1702C691.589 69.1788 691.444 69.2251 691.317 69.3048L633.414 102.736C633.099 102.945 632.837 103.225 632.647 103.552C632.458 103.88 632.348 104.247 632.324 104.624V164.944C632.296 165.053 632.305 165.168 632.348 165.272C632.392 165.375 632.468 165.462 632.565 165.518C632.662 165.574 632.775 165.597 632.887 165.583C632.998 165.569 633.102 165.519 633.182 165.441L691.085 132.033C691.4 131.824 691.663 131.545 691.852 131.217C692.042 130.889 692.152 130.522 692.175 130.144V69.8244C692.188 69.7156 692.174 69.6053 692.132 69.5038C692.091 69.4023 692.024 69.313 691.939 69.2444C691.88 69.2021 691.811 69.1764 691.739 69.1702Z" fill="#E0E0E0"/>
<path d="M630.844 128.623L626.668 126.21C626.533 126.618 626.458 127.043 626.445 127.472V174.744C626.468 175.163 626.59 175.569 626.799 175.932C627.009 176.295 627.301 176.603 627.651 176.832L629.006 177.617C629.379 177.806 629.792 177.905 630.21 177.905C630.629 177.905 631.042 177.806 631.415 177.617L631.995 177.287L630.844 128.623Z" fill="#5361FA"/>
<g opacity="0.1">
<path d="M630.844 128.623L626.668 126.21C626.533 126.618 626.458 127.043 626.445 127.472V174.744C626.468 175.163 626.59 175.569 626.799 175.932C627.009 176.295 627.301 176.603 627.651 176.832L629.006 177.617C629.379 177.806 629.792 177.905 630.21 177.905C630.629 177.905 631.042 177.806 631.415 177.617L631.995 177.287L630.844 128.623Z" fill="black"/>
</g>
<path d="M694.296 92.6532V139.926C694.28 140.358 694.151 140.779 693.92 141.146C693.742 141.455 693.502 141.723 693.215 141.935L693.168 141.963L693.09 142.014L631.419 177.616C631.301 177.7 631.164 177.752 631.021 177.768C630.877 177.784 630.732 177.764 630.598 177.709C630.468 177.625 630.363 177.506 630.297 177.366C630.23 177.226 630.205 177.07 630.222 176.916V129.648C630.212 129.479 630.242 129.309 630.312 129.155C630.381 129 630.487 128.864 630.62 128.759C630.753 128.654 630.91 128.583 631.077 128.552C631.243 128.521 631.415 128.531 631.577 128.581L657.496 134.747L660.893 135.555C661.294 135.631 661.709 135.595 662.092 135.452C662.475 135.309 662.811 135.064 663.064 134.743L666.999 129.263L693.484 92.3888C693.929 91.7763 694.296 91.883 694.296 92.6532Z" fill="#5361FA"/>
<path opacity="0.3" d="M694.296 92.6532V139.926C694.28 140.358 694.151 140.779 693.92 141.146C693.742 141.455 693.502 141.723 693.215 141.935L693.168 141.963L693.09 142.014L631.419 177.616C631.301 177.7 631.164 177.752 631.021 177.768C630.877 177.784 630.732 177.764 630.598 177.709C630.468 177.625 630.363 177.506 630.297 177.366C630.23 177.226 630.205 177.07 630.222 176.916V129.648C630.212 129.479 630.242 129.309 630.312 129.155C630.381 129 630.487 128.864 630.62 128.759C630.753 128.654 630.91 128.583 631.077 128.552C631.243 128.521 631.415 128.531 631.577 128.581L657.496 134.747L660.893 135.555C661.294 135.631 661.709 135.595 662.092 135.452C662.475 135.309 662.811 135.064 663.064 134.743L666.999 129.263L693.484 92.3888C693.929 91.7763 694.296 91.883 694.296 92.6532Z" fill="white"/>
<path d="M693.089 142.013L693.168 141.962L693.215 141.935C693.502 141.723 693.742 141.454 693.92 141.146C694.145 140.784 694.273 140.37 694.291 139.944L666.999 129.272L685.276 146.528L693.089 142.013Z" fill="#5361FA"/>
<path d="M630.213 176.92C630.195 177.074 630.221 177.23 630.287 177.37C630.354 177.511 630.458 177.63 630.589 177.713C630.722 177.768 630.868 177.789 631.011 177.772C631.155 177.756 631.292 177.704 631.41 177.621L652.643 165.362L657.491 134.738L630.204 176.127L630.213 176.92Z" fill="#5361FA"/>
<path d="M693.92 141.146C693.742 141.455 693.502 141.723 693.215 141.935L693.168 141.962L631.419 177.616C631.301 177.7 631.164 177.752 631.02 177.768C630.877 177.784 630.732 177.764 630.598 177.709L660.127 130.567C660.719 129.622 661.631 128.922 662.697 128.594C663.763 128.267 664.911 128.335 665.931 128.785L693.92 141.146Z" fill="#5361FA"/>
<path opacity="0.3" d="M693.92 141.146C693.742 141.455 693.502 141.723 693.215 141.935L693.168 141.962L631.419 177.616C631.301 177.7 631.164 177.752 631.02 177.768C630.877 177.784 630.732 177.764 630.598 177.709L660.127 130.567C660.719 129.622 661.631 128.922 662.697 128.594C663.763 128.267 664.911 128.335 665.931 128.785L693.92 141.146Z" fill="white"/>
<path d="M657.589 118.517C657.047 118.6 656.494 118.551 655.976 118.373C655.458 118.196 654.99 117.894 654.615 117.496C653.909 116.712 653.557 115.501 653.557 113.872C653.558 112.034 653.952 110.218 654.712 108.545C655.492 106.824 656.57 105.253 657.895 103.905C659.32 102.428 660.944 101.156 662.721 100.128C664.462 99.126 665.949 98.5708 667.18 98.4625C668.419 98.3511 669.351 98.6713 669.992 99.4137C670.632 100.156 670.947 101.293 670.947 102.815C670.974 104.324 670.617 105.816 669.908 107.149C669.284 108.356 668.332 109.362 667.161 110.053C666.757 110.34 666.262 110.469 665.769 110.415C665.594 110.38 665.432 110.296 665.304 110.172C665.175 110.047 665.086 109.889 665.045 109.714C664.659 110.445 664.168 111.116 663.588 111.705C663.002 112.31 662.333 112.83 661.602 113.25C660.34 113.965 659.333 114.178 658.591 113.932C657.849 113.686 657.496 112.935 657.496 111.682C657.507 110.107 657.992 108.573 658.888 107.278C659.864 105.843 661.16 104.655 662.674 103.808C663.307 103.431 663.994 103.156 664.711 102.991C665.244 102.847 665.807 102.847 666.34 102.991V107.877C666.34 108.271 666.409 108.513 666.544 108.606C666.679 108.698 666.901 108.652 667.217 108.471C667.805 108.089 668.24 107.512 668.446 106.842C668.76 105.937 668.909 104.983 668.887 104.026C668.887 102.807 668.621 101.921 668.089 101.367C667.805 101.089 667.458 100.883 667.078 100.767C666.697 100.651 666.295 100.628 665.904 100.699C664.771 100.872 663.686 101.276 662.716 101.887C660.665 103.025 658.896 104.611 657.542 106.527C656.291 108.325 655.627 110.466 655.64 112.656C655.64 113.989 655.914 114.962 656.461 115.575C656.745 115.881 657.1 116.113 657.496 116.249C657.891 116.385 658.313 116.421 658.726 116.354C659.88 116.191 660.987 115.784 661.974 115.162C662.654 114.768 663.299 114.315 663.899 113.807C664.458 113.345 664.967 112.826 665.416 112.257C665.463 112.197 665.518 112.144 665.579 112.099C665.621 112.076 665.662 112.099 665.7 112.155L666.21 113.083C666.229 113.12 666.243 113.159 666.252 113.199C666.235 113.302 666.185 113.397 666.108 113.468C665.547 114.142 664.926 114.764 664.252 115.324C663.542 115.92 662.783 116.454 661.983 116.92C660.65 117.762 659.151 118.307 657.589 118.517ZM663.621 109.793C664.062 109.272 664.32 108.62 664.354 107.937V105.107C663.692 105.163 663.054 105.383 662.498 105.747C661.613 106.245 660.859 106.947 660.299 107.794C659.773 108.571 659.49 109.486 659.487 110.424C659.487 111.209 659.681 111.677 660.076 111.816C660.47 111.956 661.078 111.816 661.909 111.32C662.581 110.931 663.169 110.412 663.639 109.793H663.621Z" fill="#E0E0E0"/>
<path d="M598.494 123.166L593.97 120.544H593.937C592.392 119.672 590.262 119.802 587.905 121.161C583.168 123.894 579.331 130.543 579.331 136.009C579.331 138.742 580.286 140.649 581.832 141.577L586.04 143.985L586.801 142.719C587.664 142.525 588.493 142.203 589.26 141.763C593.993 139.025 597.835 132.376 597.835 126.915C597.832 126.177 597.742 125.442 597.566 124.725L598.494 123.166Z" fill="#F28F8F"/>
<path d="M598.494 123.166L593.97 120.544H593.937C592.392 119.672 590.262 119.802 587.905 121.161C583.168 123.894 579.331 130.543 579.331 136.009C579.331 138.742 580.286 140.649 581.832 141.577L586.04 143.985L586.801 142.719C587.664 142.525 588.493 142.203 589.26 141.763C593.993 139.025 597.835 132.376 597.835 126.915C597.832 126.177 597.742 125.442 597.566 124.725L598.494 123.166Z" fill="#5361FA"/>
<path opacity="0.4" d="M598.494 123.166L593.97 120.544H593.937C592.392 119.672 590.262 119.802 587.905 121.161C583.168 123.894 579.331 130.543 579.331 136.009C579.331 138.742 580.286 140.649 581.832 141.577L586.04 143.985L586.801 142.719C587.664 142.525 588.493 142.203 589.26 141.763C593.993 139.025 597.835 132.376 597.835 126.915C597.832 126.177 597.742 125.442 597.566 124.725L598.494 123.166Z" fill="black"/>
<path d="M592.253 123.653C587.516 126.391 583.678 133.04 583.678 138.501C583.678 143.962 587.516 146.185 592.253 143.452C596.99 140.719 600.828 134.07 600.828 128.604C600.828 123.138 596.99 120.92 592.253 123.653Z" fill="#5361FA"/>
<path d="M588.903 139.81C588.815 139.81 588.768 139.758 588.768 139.68C588.777 139.592 588.803 139.507 588.843 139.429L589.274 138.459C589.303 138.364 589.359 138.28 589.436 138.218C589.501 138.189 589.57 138.173 589.641 138.172C590.027 138.149 590.408 138.072 590.773 137.944C591.258 137.781 591.725 137.566 592.165 137.304C592.849 136.933 593.45 136.424 593.928 135.81C594.287 135.345 594.487 134.777 594.499 134.19C594.499 133.165 593.872 133.017 592.62 133.726L591.399 134.464C591.2 134.576 591.06 134.617 590.977 134.58C590.893 134.543 590.852 134.432 590.852 134.246V133.861C590.845 133.697 590.889 133.535 590.977 133.397C591.089 133.246 591.233 133.122 591.399 133.035L592.61 132.334C593.095 132.07 593.507 131.689 593.807 131.226C594.059 130.836 594.197 130.385 594.206 129.922C594.206 128.929 593.507 128.836 592.109 129.643C591.249 130.133 590.475 130.76 589.817 131.499C589.755 131.569 589.687 131.633 589.613 131.69C589.585 131.702 589.555 131.706 589.525 131.699C589.496 131.692 589.469 131.676 589.45 131.652L589.037 131.188C589.014 131.167 588.996 131.141 588.983 131.113C588.97 131.084 588.964 131.053 588.963 131.021C588.973 130.915 589.018 130.815 589.093 130.738C589.504 130.224 589.971 129.757 590.485 129.346C591.084 128.859 591.722 128.421 592.392 128.038C592.998 127.661 593.665 127.396 594.364 127.254C594.584 127.2 594.813 127.195 595.035 127.239C595.257 127.283 595.467 127.375 595.649 127.509C595.814 127.668 595.941 127.861 596.022 128.076C596.102 128.29 596.133 128.52 596.113 128.748C596.103 129.259 595.989 129.762 595.779 130.228C595.555 130.766 595.241 131.261 594.851 131.694C595.052 131.627 595.266 131.612 595.473 131.65C595.681 131.688 595.876 131.778 596.039 131.912C596.182 132.079 596.291 132.272 596.358 132.481C596.426 132.689 596.452 132.909 596.434 133.128C596.398 134.157 596.037 135.148 595.404 135.958C594.625 137.002 593.631 137.866 592.49 138.492C590.856 139.448 589.661 139.887 588.903 139.81Z" fill="white"/>
<path d="M610.563 316.056C609.395 316.056 608.339 315.856 607.395 315.456C606.467 315.056 605.731 314.48 605.187 313.728C604.643 312.976 604.363 312.088 604.347 311.064H607.947C607.995 311.752 608.235 312.296 608.667 312.696C609.115 313.096 609.723 313.296 610.491 313.296C611.275 313.296 611.891 313.112 612.339 312.744C612.787 312.36 613.011 311.864 613.011 311.256C613.011 310.76 612.859 310.352 612.555 310.032C612.251 309.712 611.867 309.464 611.403 309.288C610.955 309.096 610.331 308.888 609.531 308.664C608.443 308.344 607.555 308.032 606.867 307.728C606.195 307.408 605.611 306.936 605.115 306.312C604.635 305.672 604.395 304.824 604.395 303.768C604.395 302.776 604.643 301.912 605.139 301.176C605.635 300.44 606.331 299.88 607.227 299.496C608.123 299.096 609.147 298.896 610.299 298.896C612.027 298.896 613.427 299.32 614.499 300.168C615.587 301 616.187 302.168 616.299 303.672H612.603C612.571 303.096 612.323 302.624 611.859 302.256C611.411 301.872 610.811 301.68 610.059 301.68C609.403 301.68 608.875 301.848 608.475 302.184C608.091 302.52 607.899 303.008 607.899 303.648C607.899 304.096 608.043 304.472 608.331 304.776C608.635 305.064 609.003 305.304 609.435 305.496C609.883 305.672 610.507 305.88 611.307 306.12C612.395 306.44 613.283 306.76 613.971 307.08C614.659 307.4 615.251 307.88 615.747 308.52C616.243 309.16 616.491 310 616.491 311.04C616.491 311.936 616.259 312.768 615.795 313.536C615.331 314.304 614.651 314.92 613.755 315.384C612.859 315.832 611.795 316.056 610.563 316.056ZM619.02 309.192C619.02 307.848 619.284 306.656 619.812 305.616C620.356 304.576 621.084 303.776 621.996 303.216C622.924 302.656 623.956 302.376 625.092 302.376C626.084 302.376 626.948 302.576 627.684 302.976C628.436 303.376 629.036 303.88 629.484 304.488V302.592H632.868V315.888H629.484V313.944C629.052 314.568 628.452 315.088 627.684 315.504C626.932 315.904 626.06 316.104 625.068 316.104C623.948 316.104 622.924 315.816 621.996 315.24C621.084 314.664 620.356 313.856 619.812 312.816C619.284 311.76 619.02 310.552 619.02 309.192ZM629.484 309.24C629.484 308.424 629.324 307.728 629.004 307.152C628.684 306.56 628.252 306.112 627.708 305.808C627.164 305.488 626.58 305.328 625.956 305.328C625.332 305.328 624.756 305.48 624.228 305.784C623.7 306.088 623.268 306.536 622.932 307.128C622.612 307.704 622.452 308.392 622.452 309.192C622.452 309.992 622.612 310.696 622.932 311.304C623.268 311.896 623.7 312.352 624.228 312.672C624.772 312.992 625.348 313.152 625.956 313.152C626.58 313.152 627.164 313 627.708 312.696C628.252 312.376 628.684 311.928 629.004 311.352C629.324 310.76 629.484 310.056 629.484 309.24ZM649.35 302.592L641.118 322.176H637.542L640.422 315.552L635.094 302.592H638.862L642.294 311.88L645.774 302.592H649.35ZM671.736 299.136V315.888H668.376V308.76H661.2V315.888H657.84V299.136H661.2V306.024H668.376V299.136H671.736ZM687.883 308.952C687.883 309.432 687.851 309.864 687.787 310.248H678.067C678.147 311.208 678.483 311.96 679.075 312.504C679.667 313.048 680.395 313.32 681.259 313.32C682.507 313.32 683.395 312.784 683.923 311.712H687.547C687.163 312.992 686.427 314.048 685.339 314.88C684.251 315.696 682.915 316.104 681.331 316.104C680.051 316.104 678.899 315.824 677.875 315.264C676.867 314.688 676.075 313.88 675.499 312.84C674.939 311.8 674.659 310.6 674.659 309.24C674.659 307.864 674.939 306.656 675.499 305.616C676.059 304.576 676.843 303.776 677.851 303.216C678.859 302.656 680.019 302.376 681.331 302.376C682.595 302.376 683.723 302.648 684.715 303.192C685.723 303.736 686.499 304.512 687.043 305.52C687.603 306.512 687.883 307.656 687.883 308.952ZM684.403 307.992C684.387 307.128 684.075 306.44 683.467 305.928C682.859 305.4 682.115 305.136 681.235 305.136C680.403 305.136 679.699 305.392 679.123 305.904C678.563 306.4 678.219 307.096 678.091 307.992H684.403ZM694.175 298.128V315.888H690.815V298.128H694.175ZM701.335 298.128V315.888H697.975V298.128H701.335ZM711.039 316.104C709.759 316.104 708.607 315.824 707.583 315.264C706.559 314.688 705.751 313.88 705.159 312.84C704.583 311.8 704.295 310.6 704.295 309.24C704.295 307.88 704.591 306.68 705.183 305.64C705.791 304.6 706.615 303.8 707.655 303.24C708.695 302.664 709.855 302.376 711.135 302.376C712.415 302.376 713.575 302.664 714.615 303.24C715.655 303.8 716.471 304.6 717.063 305.64C717.671 306.68 717.975 307.88 717.975 309.24C717.975 310.6 717.663 311.8 717.039 312.84C716.431 313.88 715.599 314.688 714.543 315.264C713.503 315.824 712.335 316.104 711.039 316.104ZM711.039 313.176C711.647 313.176 712.215 313.032 712.743 312.744C713.287 312.44 713.719 311.992 714.039 311.4C714.359 310.808 714.519 310.088 714.519 309.24C714.519 307.976 714.183 307.008 713.511 306.336C712.855 305.648 712.047 305.304 711.087 305.304C710.127 305.304 709.319 305.648 708.663 306.336C708.023 307.008 707.703 307.976 707.703 309.24C707.703 310.504 708.015 311.48 708.639 312.168C709.279 312.84 710.079 313.176 711.039 313.176ZM731.03 305.352V311.784C731.03 312.232 731.134 312.56 731.342 312.768C731.566 312.96 731.934 313.056 732.446 313.056H734.006V315.888H731.894C729.062 315.888 727.646 314.512 727.646 311.76V305.352H726.062V302.592H727.646V299.304H731.03V302.592H734.006V305.352H731.03ZM742.807 316.104C741.527 316.104 740.375 315.824 739.351 315.264C738.327 314.688 737.519 313.88 736.927 312.84C736.351 311.8 736.063 310.6 736.063 309.24C736.063 307.88 736.359 306.68 736.951 305.64C737.559 304.6 738.383 303.8 739.423 303.24C740.463 302.664 741.623 302.376 742.903 302.376C744.183 302.376 745.343 302.664 746.383 303.24C747.423 303.8 748.239 304.6 748.831 305.64C749.439 306.68 749.743 307.88 749.743 309.24C749.743 310.6 749.431 311.8 748.807 312.84C748.199 313.88 747.367 314.688 746.311 315.264C745.271 315.824 744.103 316.104 742.807 316.104ZM742.807 313.176C743.415 313.176 743.983 313.032 744.511 312.744C745.055 312.44 745.487 311.992 745.807 311.4C746.127 310.808 746.287 310.088 746.287 309.24C746.287 307.976 745.951 307.008 745.279 306.336C744.623 305.648 743.815 305.304 742.855 305.304C741.895 305.304 741.087 305.648 740.431 306.336C739.791 307.008 739.471 307.976 739.471 309.24C739.471 310.504 739.783 311.48 740.407 312.168C741.047 312.84 741.847 313.176 742.807 313.176ZM766.662 316.056C765.094 316.056 763.654 315.688 762.342 314.952C761.03 314.216 759.99 313.2 759.222 311.904C758.454 310.592 758.07 309.112 758.07 307.464C758.07 305.832 758.454 304.368 759.222 303.072C759.99 301.76 761.03 300.736 762.342 300C763.654 299.264 765.094 298.896 766.662 298.896C768.246 298.896 769.686 299.264 770.982 300C772.294 300.736 773.326 301.76 774.078 303.072C774.846 304.368 775.23 305.832 775.23 307.464C775.23 309.112 774.846 310.592 774.078 311.904C773.326 313.2 772.294 314.216 770.982 314.952C769.67 315.688 768.23 316.056 766.662 316.056ZM766.662 313.056C767.67 313.056 768.558 312.832 769.326 312.384C770.094 311.92 770.694 311.264 771.126 310.416C771.558 309.568 771.774 308.584 771.774 307.464C771.774 306.344 771.558 305.368 771.126 304.536C770.694 303.688 770.094 303.04 769.326 302.592C768.558 302.144 767.67 301.92 766.662 301.92C765.654 301.92 764.758 302.144 763.974 302.592C763.206 303.04 762.606 303.688 762.174 304.536C761.742 305.368 761.526 306.344 761.526 307.464C761.526 308.584 761.742 309.568 762.174 310.416C762.606 311.264 763.206 311.92 763.974 312.384C764.758 312.832 765.654 313.056 766.662 313.056ZM790.762 302.592V315.888H787.378V314.208C786.946 314.784 786.378 315.24 785.674 315.576C784.986 315.896 784.234 316.056 783.418 316.056C782.378 316.056 781.458 315.84 780.658 315.408C779.858 314.96 779.226 314.312 778.762 313.464C778.314 312.6 778.09 311.576 778.09 310.392V302.592H781.45V309.912C781.45 310.968 781.714 311.784 782.242 312.36C782.77 312.92 783.49 313.2 784.402 313.2C785.33 313.2 786.058 312.92 786.586 312.36C787.114 311.784 787.378 310.968 787.378 309.912V302.592H790.762ZM797.917 304.656C798.349 303.952 798.909 303.4 799.597 303C800.301 302.6 801.101 302.4 801.997 302.4V305.928H801.109C800.053 305.928 799.253 306.176 798.709 306.672C798.181 307.168 797.917 308.032 797.917 309.264V315.888H794.557V302.592H797.917V304.656ZM822.339 299.136V301.848H817.875V315.888H814.515V301.848H810.051V299.136H822.339ZM837.631 308.952C837.631 309.432 837.599 309.864 837.535 310.248H827.815C827.895 311.208 828.231 311.96 828.823 312.504C829.415 313.048 830.143 313.32 831.007 313.32C832.255 313.32 833.143 312.784 833.671 311.712H837.295C836.911 312.992 836.175 314.048 835.087 314.88C833.999 315.696 832.663 316.104 831.079 316.104C829.799 316.104 828.647 315.824 827.623 315.264C826.615 314.688 825.823 313.88 825.247 312.84C824.687 311.8 824.407 310.6 824.407 309.24C824.407 307.864 824.687 306.656 825.247 305.616C825.807 304.576 826.591 303.776 827.599 303.216C828.607 302.656 829.767 302.376 831.079 302.376C832.343 302.376 833.471 302.648 834.463 303.192C835.471 303.736 836.247 304.512 836.791 305.52C837.351 306.512 837.631 307.656 837.631 308.952ZM834.151 307.992C834.135 307.128 833.823 306.44 833.215 305.928C832.607 305.4 831.863 305.136 830.983 305.136C830.151 305.136 829.447 305.392 828.871 305.904C828.311 306.4 827.967 307.096 827.839 307.992H834.151ZM839.699 309.192C839.699 307.848 839.963 306.656 840.491 305.616C841.035 304.576 841.763 303.776 842.675 303.216C843.603 302.656 844.635 302.376 845.771 302.376C846.763 302.376 847.627 302.576 848.363 302.976C849.115 303.376 849.715 303.88 850.163 304.488V302.592H853.547V315.888H850.163V313.944C849.731 314.568 849.131 315.088 848.363 315.504C847.611 315.904 846.739 316.104 845.747 316.104C844.627 316.104 843.603 315.816 842.675 315.24C841.763 314.664 841.035 313.856 840.491 312.816C839.963 311.76 839.699 310.552 839.699 309.192ZM850.163 309.24C850.163 308.424 850.003 307.728 849.683 307.152C849.363 306.56 848.931 306.112 848.387 305.808C847.843 305.488 847.259 305.328 846.635 305.328C846.011 305.328 845.435 305.48 844.907 305.784C844.379 306.088 843.947 306.536 843.611 307.128C843.291 307.704 843.131 308.392 843.131 309.192C843.131 309.992 843.291 310.696 843.611 311.304C843.947 311.896 844.379 312.352 844.907 312.672C845.451 312.992 846.027 313.152 846.635 313.152C847.259 313.152 847.843 313 848.387 312.696C848.931 312.376 849.363 311.928 849.683 311.352C850.003 310.76 850.163 310.056 850.163 309.24ZM873.821 302.4C875.453 302.4 876.765 302.904 877.757 303.912C878.765 304.904 879.269 306.296 879.269 308.088V315.888H875.909V308.544C875.909 307.504 875.645 306.712 875.117 306.168C874.589 305.608 873.869 305.328 872.957 305.328C872.045 305.328 871.317 305.608 870.773 306.168C870.245 306.712 869.981 307.504 869.981 308.544V315.888H866.621V308.544C866.621 307.504 866.357 306.712 865.829 306.168C865.301 305.608 864.581 305.328 863.669 305.328C862.741 305.328 862.005 305.608 861.461 306.168C860.933 306.712 860.669 307.504 860.669 308.544V315.888H857.309V302.592H860.669V304.2C861.101 303.64 861.653 303.2 862.325 302.88C863.013 302.56 863.765 302.4 864.581 302.4C865.621 302.4 866.549 302.624 867.365 303.072C868.181 303.504 868.813 304.128 869.261 304.944C869.693 304.176 870.317 303.56 871.133 303.096C871.965 302.632 872.861 302.4 873.821 302.4ZM684.447 336.144C686.303 336.144 687.911 336.488 689.271 337.176C690.631 337.864 691.671 338.832 692.391 340.08C693.127 341.328 693.495 342.768 693.495 344.4C693.495 345.712 693.263 346.952 692.799 348.12C692.351 349.288 691.695 350.232 690.831 350.952C689.967 351.672 688.943 352.032 687.759 352.032C686.927 352.032 686.255 351.864 685.743 351.528C685.231 351.176 684.903 350.68 684.759 350.04C684.295 350.664 683.695 351.16 682.959 351.528C682.223 351.88 681.447 352.056 680.631 352.056C679.415 352.056 678.463 351.696 677.775 350.976C677.087 350.24 676.743 349.24 676.743 347.976C676.743 346.776 676.991 345.656 677.487 344.616C677.983 343.576 678.671 342.744 679.551 342.12C680.431 341.48 681.423 341.16 682.527 341.16C683.903 341.16 684.847 341.64 685.359 342.6L685.575 341.352H688.383L687.255 347.832C687.207 348.136 687.183 348.416 687.183 348.672C687.183 349.056 687.263 349.344 687.423 349.536C687.583 349.728 687.855 349.824 688.239 349.824C688.815 349.824 689.295 349.552 689.679 349.008C690.079 348.464 690.375 347.784 690.567 346.968C690.775 346.152 690.879 345.336 690.879 344.52C690.879 342.584 690.287 341.088 689.103 340.032C687.919 338.96 686.247 338.424 684.087 338.424C682.247 338.424 680.583 338.872 679.095 339.768C677.607 340.648 676.439 341.856 675.591 343.392C674.759 344.912 674.343 346.608 674.343 348.48C674.343 350.464 674.927 351.992 676.095 353.064C677.279 354.136 678.951 354.672 681.111 354.672C682.663 354.672 684.031 354.392 685.215 353.832L685.695 356.04C684.175 356.68 682.487 357 680.631 357C678.839 357 677.271 356.656 675.927 355.968C674.583 355.296 673.543 354.336 672.807 353.088C672.071 351.84 671.703 350.392 671.703 348.744C671.703 346.392 672.247 344.256 673.335 342.336C674.439 340.416 675.959 338.904 677.895 337.8C679.847 336.696 682.031 336.144 684.447 336.144ZM681.687 349.56C682.263 349.56 682.791 349.392 683.271 349.056C683.751 348.72 684.127 348.272 684.399 347.712C684.687 347.152 684.831 346.552 684.831 345.912C684.831 345.24 684.647 344.696 684.279 344.28C683.911 343.864 683.399 343.656 682.743 343.656C682.151 343.656 681.631 343.84 681.183 344.208C680.735 344.56 680.383 345.024 680.127 345.6C679.887 346.176 679.767 346.784 679.767 347.424C679.767 348.08 679.927 348.6 680.247 348.984C680.567 349.368 681.047 349.56 681.687 349.56ZM709.569 340.32C709.569 341.216 709.353 342.056 708.921 342.84C708.505 343.624 707.841 344.256 706.929 344.736C706.033 345.216 704.897 345.456 703.521 345.456H700.713V351.888H697.353V335.136H703.521C704.817 335.136 705.921 335.36 706.833 335.808C707.745 336.256 708.425 336.872 708.873 337.656C709.337 338.44 709.569 339.328 709.569 340.32ZM703.377 342.744C704.305 342.744 704.993 342.536 705.441 342.12C705.889 341.688 706.113 341.088 706.113 340.32C706.113 338.688 705.201 337.872 703.377 337.872H700.713V342.744H703.377ZM714.139 337.008C713.547 337.008 713.051 336.824 712.651 336.456C712.267 336.072 712.075 335.6 712.075 335.04C712.075 334.48 712.267 334.016 712.651 333.648C713.051 333.264 713.547 333.072 714.139 333.072C714.731 333.072 715.219 333.264 715.603 333.648C716.003 334.016 716.203 334.48 716.203 335.04C716.203 335.6 716.003 336.072 715.603 336.456C715.219 336.824 714.731 337.008 714.139 337.008ZM715.795 338.592V351.888H712.435V338.592H715.795ZM726.939 351.888L724.203 347.76L721.779 351.888H718.179L722.523 345.216L718.131 338.592H721.923L724.635 342.696L727.083 338.592H730.683L726.315 345.216L730.731 351.888H726.939ZM745.396 344.952C745.396 345.432 745.364 345.864 745.3 346.248H735.58C735.66 347.208 735.996 347.96 736.588 348.504C737.18 349.048 737.908 349.32 738.772 349.32C740.02 349.32 740.908 348.784 741.436 347.712H745.06C744.676 348.992 743.94 350.048 742.852 350.88C741.764 351.696 740.428 352.104 738.844 352.104C737.564 352.104 736.412 351.824 735.388 351.264C734.38 350.688 733.588 349.88 733.012 348.84C732.452 347.8 732.172 346.6 732.172 345.24C732.172 343.864 732.452 342.656 733.012 341.616C733.572 340.576 734.356 339.776 735.364 339.216C736.372 338.656 737.532 338.376 738.844 338.376C740.108 338.376 741.236 338.648 742.228 339.192C743.236 339.736 744.012 340.512 744.556 341.52C745.116 342.512 745.396 343.656 745.396 344.952ZM741.916 343.992C741.9 343.128 741.588 342.44 740.98 341.928C740.372 341.4 739.628 341.136 738.748 341.136C737.916 341.136 737.212 341.392 736.636 341.904C736.076 342.4 735.732 343.096 735.604 343.992H741.916ZM751.688 334.128V351.888H748.328V334.128H751.688ZM773.92 338.592L770.032 351.888H766.408L763.984 342.6L761.56 351.888H757.912L754 338.592H757.408L759.76 348.72L762.304 338.592H765.856L768.352 348.696L770.704 338.592H773.92ZM782.122 352.104C780.842 352.104 779.69 351.824 778.666 351.264C777.642 350.688 776.834 349.88 776.242 348.84C775.666 347.8 775.378 346.6 775.378 345.24C775.378 343.88 775.674 342.68 776.266 341.64C776.874 340.6 777.698 339.8 778.738 339.24C779.778 338.664 780.938 338.376 782.218 338.376C783.498 338.376 784.658 338.664 785.698 339.24C786.738 339.8 787.554 340.6 788.146 341.64C788.754 342.68 789.058 343.88 789.058 345.24C789.058 346.6 788.746 347.8 788.122 348.84C787.514 349.88 786.682 350.688 785.626 351.264C784.586 351.824 783.418 352.104 782.122 352.104ZM782.122 349.176C782.73 349.176 783.298 349.032 783.826 348.744C784.37 348.44 784.802 347.992 785.122 347.4C785.442 346.808 785.602 346.088 785.602 345.24C785.602 343.976 785.266 343.008 784.594 342.336C783.938 341.648 783.13 341.304 782.17 341.304C781.21 341.304 780.402 341.648 779.746 342.336C779.106 343.008 778.786 343.976 778.786 345.24C778.786 346.504 779.098 347.48 779.722 348.168C780.362 348.84 781.162 349.176 782.122 349.176ZM795.363 340.656C795.795 339.952 796.355 339.4 797.043 339C797.747 338.6 798.547 338.4 799.443 338.4V341.928H798.555C797.499 341.928 796.699 342.176 796.155 342.672C795.627 343.168 795.363 344.032 795.363 345.264V351.888H792.003V338.592H795.363V340.656ZM805.546 334.128V351.888H802.186V334.128H805.546ZM808.481 345.192C808.481 343.848 808.745 342.656 809.273 341.616C809.817 340.576 810.553 339.776 811.481 339.216C812.409 338.656 813.441 338.376 814.577 338.376C815.441 338.376 816.265 338.568 817.049 338.952C817.833 339.32 818.457 339.816 818.921 340.44V334.128H822.329V351.888H818.921V349.92C818.505 350.576 817.921 351.104 817.169 351.504C816.417 351.904 815.545 352.104 814.553 352.104C813.433 352.104 812.409 351.816 811.481 351.24C810.553 350.664 809.817 349.856 809.273 348.816C808.745 347.76 808.481 346.552 808.481 345.192ZM818.945 345.24C818.945 344.424 818.785 343.728 818.465 343.152C818.145 342.56 817.713 342.112 817.169 341.808C816.625 341.488 816.041 341.328 815.417 341.328C814.793 341.328 814.217 341.48 813.689 341.784C813.161 342.088 812.729 342.536 812.393 343.128C812.073 343.704 811.913 344.392 811.913 345.192C811.913 345.992 812.073 346.696 812.393 347.304C812.729 347.896 813.161 348.352 813.689 348.672C814.233 348.992 814.809 349.152 815.417 349.152C816.041 349.152 816.625 349 817.169 348.696C817.713 348.376 818.145 347.928 818.465 347.352C818.785 346.76 818.945 346.056 818.945 345.24ZM827.579 352.056C826.971 352.056 826.467 351.872 826.067 351.504C825.683 351.12 825.491 350.648 825.491 350.088C825.491 349.528 825.683 349.064 826.067 348.696C826.467 348.312 826.971 348.12 827.579 348.12C828.171 348.12 828.659 348.312 829.043 348.696C829.427 349.064 829.619 349.528 829.619 350.088C829.619 350.648 829.427 351.12 829.043 351.504C828.659 351.872 828.171 352.056 827.579 352.056ZM831.941 345.24C831.941 343.864 832.221 342.664 832.781 341.64C833.341 340.6 834.117 339.8 835.109 339.24C836.101 338.664 837.237 338.376 838.517 338.376C840.165 338.376 841.525 338.792 842.597 339.624C843.685 340.44 844.413 341.592 844.781 343.08H841.157C840.965 342.504 840.637 342.056 840.173 341.736C839.725 341.4 839.165 341.232 838.493 341.232C837.533 341.232 836.773 341.584 836.213 342.288C835.653 342.976 835.373 343.96 835.373 345.24C835.373 346.504 835.653 347.488 836.213 348.192C836.773 348.88 837.533 349.224 838.493 349.224C839.853 349.224 840.741 348.616 841.157 347.4H844.781C844.413 348.84 843.685 349.984 842.597 350.832C841.509 351.68 840.149 352.104 838.517 352.104C837.237 352.104 836.101 351.824 835.109 351.264C834.117 350.688 833.341 349.888 832.781 348.864C832.221 347.824 831.941 346.616 831.941 345.24ZM853.627 352.104C852.347 352.104 851.195 351.824 850.171 351.264C849.147 350.688 848.339 349.88 847.747 348.84C847.171 347.8 846.883 346.6 846.883 345.24C846.883 343.88 847.179 342.68 847.771 341.64C848.379 340.6 849.203 339.8 850.243 339.24C851.283 338.664 852.443 338.376 853.723 338.376C855.003 338.376 856.163 338.664 857.203 339.24C858.243 339.8 859.059 340.6 859.651 341.64C860.259 342.68 860.563 343.88 860.563 345.24C860.563 346.6 860.251 347.8 859.627 348.84C859.019 349.88 858.187 350.688 857.131 351.264C856.091 351.824 854.923 352.104 853.627 352.104ZM853.627 349.176C854.235 349.176 854.803 349.032 855.331 348.744C855.875 348.44 856.307 347.992 856.627 347.4C856.947 346.808 857.107 346.088 857.107 345.24C857.107 343.976 856.771 343.008 856.099 342.336C855.443 341.648 854.635 341.304 853.675 341.304C852.715 341.304 851.907 341.648 851.251 342.336C850.611 343.008 850.291 343.976 850.291 345.24C850.291 346.504 850.603 347.48 851.227 348.168C851.867 348.84 852.667 349.176 853.627 349.176ZM880.02 338.4C881.652 338.4 882.964 338.904 883.956 339.912C884.964 340.904 885.468 342.296 885.468 344.088V351.888H882.108V344.544C882.108 343.504 881.844 342.712 881.316 342.168C880.788 341.608 880.068 341.328 879.156 341.328C878.244 341.328 877.516 341.608 876.972 342.168C876.444 342.712 876.18 343.504 876.18 344.544V351.888H872.82V344.544C872.82 343.504 872.556 342.712 872.028 342.168C871.5 341.608 870.78 341.328 869.868 341.328C868.94 341.328 868.204 341.608 867.66 342.168C867.132 342.712 866.868 343.504 866.868 344.544V351.888H863.508V338.592H866.868V340.2C867.3 339.64 867.852 339.2 868.524 338.88C869.212 338.56 869.964 338.4 870.78 338.4C871.82 338.4 872.748 338.624 873.564 339.072C874.38 339.504 875.012 340.128 875.46 340.944C875.892 340.176 876.516 339.56 877.332 339.096C878.164 338.632 879.06 338.4 880.02 338.4Z" fill="#FCFCFC"/>
</svg>
